<svg xmlns="http://www.w3.org/2000/svg" width="66.344" height="65.844" viewBox="0 0 66.344 65.844"><defs><style>.a{opacity:0.64;}.a,.b,.c{mix-blend-mode:multiply;isolation:isolate;}</style></defs><g class="a"><g class="b" transform="translate(0 0)"><path class="c" d="M47.36,23.141a.271.271,0,0,0-.087-.152.4.4,0,0,0,.152-.217h0a.444.444,0,0,0-.542-.542A5.546,5.546,0,0,0,44.327,25.1a19.5,19.5,0,0,0-1.668,4.7c-1.581-2.112-4.441-4.983-6.185-1.571-.173.347.206.845.574.574a7.431,7.431,0,0,1,1.17-.867c.964-.39,1.809.563,2.372,1.148a24.254,24.254,0,0,1,2.166,2.936c.8,1.159,1.852,2.86,3.52,2.47s2.047-2.166,2.036-3.585a42.245,42.245,0,0,0-.953-7.767ZM44.922,32.89A12.273,12.273,0,0,1,43.2,30.507l-.271-.4a.184.184,0,0,0,.065-.087,25,25,0,0,1,1.82-3.845,10.94,10.94,0,0,1,1.917-2.762c0,2.361.39,4.7.5,7.052.054,1.267-.509,4.04-2.307,2.448Z" transform="translate(3.028 1.849)"/><path class="c" d="M45.9,44.376a13.465,13.465,0,0,0-2.806-2.448l-2.86-2.253a12.793,12.793,0,0,1-2.654-2.946A9.131,9.131,0,0,0,35.7,34.41H35.65a10.442,10.442,0,0,0,3.455,5.828c1.007.888,2.08,1.69,3.13,2.524a14.016,14.016,0,0,0,3.141,2.275C45.778,45.22,46.125,44.7,45.9,44.376Z" transform="translate(2.963 2.864)"/><path class="c" d="M44.2,45a5.015,5.015,0,0,0-1.549,2.166,23.151,23.151,0,0,0-1.083,2.741c-.1.292.357.412.455.13A11.72,11.72,0,0,1,43.3,47.385a9.749,9.749,0,0,0,1.332-2.069A.3.3,0,0,0,44.2,45Z" transform="translate(3.454 3.743)"/><path class="c" d="M44.453,47.537c-.184.455-.357.91-.531,1.376s.368.422.487.13.379-.91.563-1.365S44.583,47.223,44.453,47.537Z" transform="translate(3.648 3.938)"/><path class="c" d="M53.708,50.516v-.087a.5.5,0,0,0-.444-.249c-.693,0-.975.769-1.278,1.289s-.466.823-.693,1.246h0a11.8,11.8,0,0,1-.325-1.462c0-.152-.249-.152-.227,0a13.232,13.232,0,0,1,0,1.408v1.408a.433.433,0,0,0,.812.217c.347-.531.672-1.083,1-1.636l.5-.812.26-.4q.271-.238.087-.195a.455.455,0,0,0,.314-.726Z" transform="translate(4.218 4.176)"/><path class="c" d="M56.4,48.205a.271.271,0,0,0-.39-.162c-.379.195-.52.682-.726,1.083a6.911,6.911,0,0,1-.877,1.192c-.347.379.206.932.563.563a8.016,8.016,0,0,0,1-1.267C56.207,49.18,56.553,48.671,56.4,48.205Z" transform="translate(4.515 3.995)"/><path class="c" d="M56.339,43.885a13.941,13.941,0,0,1-1.657-.715,5.622,5.622,0,0,0-1.408-.639.347.347,0,0,0-.336.574,6.607,6.607,0,0,0,3.25,1.43.336.336,0,0,0,.152-.65Z" transform="translate(4.393 3.539)"/><path class="c" d="M46.309,37.088c-.054-.314-.466-.292-.628-.087a6.24,6.24,0,0,0-.607,1.787,7.517,7.517,0,0,1-.932,2.015c-.162.238.227.466.39.227C45.27,39.97,46.569,38.475,46.309,37.088Z" transform="translate(3.666 3.067)"/><path class="c" d="M47.485,37.928l-.184.639a.326.326,0,1,0,.628.173l.184-.639a.326.326,0,0,0-.628-.173Z" transform="translate(3.931 3.137)"/><path class="c" d="M63.465,45.018c-1.82-1.841-4.225-3.25-5.709-5.362-1.906-2.762-2.611-6.5-2.892-9.749a45.289,45.289,0,0,1,.455-9.326c2.036-2.73,2.892-6.5.877-9.521a6.272,6.272,0,0,0-3.661-2.578c-1.148-.271-3.055-.238-3.466,1.083-.108.379.292.585.6.455a3.726,3.726,0,0,1,3.661-.087,5.871,5.871,0,0,1,2.491,2.7c1.083,2.264.509,4.809-.552,7a.282.282,0,0,0-.347.152c-.141.39-.249.78-.368,1.181h0c-1.343,4.874-.747,10.4.552,15.165a12.576,12.576,0,0,0,3.25,6.044,60.313,60.313,0,0,1,5.719,5.416c.7.867,1.289,1.332.639,2.578A12.391,12.391,0,0,1,63.2,52.048q-1.462,1.831-2.979,3.618l-2.751,3.185a13.962,13.962,0,0,1-3.1,3.13c-.466.271-1.083.552-1.592.076a3.347,3.347,0,0,1-.325-.812,6.348,6.348,0,0,0-.585-1.083A8.027,8.027,0,0,0,49.827,58.2a29.247,29.247,0,0,0-6.239-2.957,19.5,19.5,0,0,0-10.832-1.365c1.9-2.08,3.087-5.2,1.636-7.582a17.472,17.472,0,0,0,4.084-.65c.26-.087.325-.552,0-.607a24.177,24.177,0,0,0-5.254.152A.607.607,0,0,0,32.8,46.21c2.751,2.567,0,6.553-2.286,8.319l-.087.087a11.059,11.059,0,0,0-1.646.921.628.628,0,0,0-.845.509c-.3,3.1-.867,6.283-3.921,7.832s-6.608.823-9.6-.422c-2.806-1.17-5.319-3.076-6.066-6.174a10.832,10.832,0,0,1,0-4.82c.314-1.441.953-2.816,1.148-4.333a.114.114,0,0,0-.195-.076C7.452,50.315,6.835,54.16,7.431,57.1a49.948,49.948,0,0,1-3.2-4.788,7.669,7.669,0,0,1-1.2-3.737,15.793,15.793,0,0,1,.639-3.683.292.292,0,0,0,0-.195.2.2,0,0,0,0-.173A19.173,19.173,0,0,1,1.44,39.905a6.933,6.933,0,0,1,.682-5.5,23.571,23.571,0,0,1,6.272-7.5c.574-.466-.238-1.278-.812-.812a26.939,26.939,0,0,0-3.564,3.434,14.244,14.244,0,0,1-1.852-9.944A15.956,15.956,0,0,1,6.7,11.5a30.579,30.579,0,0,1,7.377-5.882A13.107,13.107,0,0,1,18.913,4.04a26.4,26.4,0,0,1,5.232.292,6.769,6.769,0,0,0-.3.7c-.195.531.617.834.888.379C27.643.563,33.677.942,38.627,1.408a14.558,14.558,0,0,1,7.247,2.329,30.1,30.1,0,0,1,2.935,2.589,7,7,0,0,0,2.535,1.939.152.152,0,0,0,.184-.184c-.379-1.289-1.69-2.307-2.6-3.25a15.588,15.588,0,0,0-3.174-2.665A17.331,17.331,0,0,0,37.912.141C33.579-.141,26.907-.433,24.35,3.856A13,13,0,0,0,13.9,4.474a30.481,30.481,0,0,0-8.666,6.911A16,16,0,0,0,.9,20.169C.574,23.495,1,27.741,3.249,30.33A19.5,19.5,0,0,0,.628,34.814a7.463,7.463,0,0,0-.3,5.156,16.411,16.411,0,0,0,2.838,4.712c-1.755,1.766-1.527,4.885-.6,6.987a27.828,27.828,0,0,0,2.546,4.084A33,33,0,0,0,7.885,59.49a.5.5,0,0,0,.477.173,12.067,12.067,0,0,0,6.153,4.918c3.25,1.322,7.084,1.939,10.312.173s3.856-4.853,4.225-8.07c4.777-3.607,11.027-1.744,16.075.292,2.286.932,5.091,1.982,6.293,4.333.347.672.412,1.527,1.148,1.928a2.513,2.513,0,0,0,2.361-.292A10.756,10.756,0,0,0,57.41,60.66q1.668-1.863,3.3-3.737,1.376-1.581,2.73-3.2a20.58,20.58,0,0,0,2.632-3.336C67.159,48.365,64.743,46.307,63.465,45.018Z" transform="translate(-0.003 0.001)"/><path class="c" d="M26.412,38.662c-2.6-.737-5.665,1.343-6.781,3.6a6.185,6.185,0,0,0,1.4,7.409c.195.173.552,0,.379-.292a6.6,6.6,0,0,1-.682-6.694c1.224-2.307,3.358-2.7,5.687-3.022C26.943,39.582,26.867,38.792,26.412,38.662Z" transform="translate(1.574 3.205)"/><path class="c" d="M20.819,26.721a7.875,7.875,0,0,0-7.712-.791c-2.784,1.213-4.755,4.463-5.925,7.149A13.1,13.1,0,0,0,6.8,42.406a5.784,5.784,0,0,0,2.166,3.25,14.45,14.45,0,0,0,5.037,1.852c.13,0,.271-.141.141-.249a14.081,14.081,0,0,0-3.2-1.874A4.939,4.939,0,0,1,8,42.309a11.991,11.991,0,0,1,0-8.2c.921-2.481,2.632-5.416,4.961-6.846a6.748,6.748,0,0,1,7.29.412C20.841,28.086,21.393,27.144,20.819,26.721Z" transform="translate(0.506 2.103)"/><path class="c" d="M43.963,11.742A4.4,4.4,0,0,0,40.887,9.4,3.13,3.13,0,0,1,41.97,7.236c.477-.433,1.246-.715,1.538-1.289a.314.314,0,0,0-.271-.477,3.8,3.8,0,0,0-2.253,1.538,2.611,2.611,0,0,0-.639,2.286,14.32,14.32,0,0,0-1.625-.3A16.692,16.692,0,0,0,30.64,10a15.425,15.425,0,0,0-9.348,9.554,2.253,2.253,0,0,0-2.286.314c-.639.477-1.592,1.538-1.506,2.383a.26.26,0,0,0,.379.217c.563-.325.78-1.083,1.2-1.581a1.95,1.95,0,0,1,1.982-.758.374.374,0,0,1-.076.271c-.076.087.227.325.325.13l.152-.3a.282.282,0,0,0,.206-.422,17.97,17.97,0,0,1,8.839-8.666,15.988,15.988,0,0,1,6.618-1.148,11.7,11.7,0,0,1,3.25.509,18.49,18.49,0,0,1,2.9,1.711C43.584,12.543,44.115,12.175,43.963,11.742Z" transform="translate(1.452 0.456)"/><path class="c" d="M22.1,9.72a6.77,6.77,0,0,0-1.365-.347c.206-.4.292-.91.477-1.3.271-.552.834-1.083.964-1.657a.282.282,0,0,0-.336-.336c-.672.195-1.083,1.083-1.354,1.636A3.38,3.38,0,0,0,20.1,9.308a11.168,11.168,0,0,0-6.835,2.1C11.222,12.84,8.6,15.743,8.59,18.364a.412.412,0,0,0,.758.206c.628-1.018.9-2.166,1.56-3.25a10.984,10.984,0,0,1,3.065-3.141c2.491-1.69,5.167-1.852,8.059-2.047A.208.208,0,0,0,22.1,9.72Z" transform="translate(0.711 0.506)"/><path class="c" d="M26.079,32.8c-.336.693-.7,1.365-1.083,2.047a5.719,5.719,0,0,1-1.322,1.993.379.379,0,0,0-.076.585l.108.1a.509.509,0,0,0,.607.076,4.625,4.625,0,0,0,1.332-2.047,9.9,9.9,0,0,0,.726-2.632A.158.158,0,0,0,26.079,32.8Z" transform="translate(1.951 2.722)"/><path class="c" d="M35.342,35.409a7.3,7.3,0,0,1-3.4-.357A15.945,15.945,0,0,1,28.8,33.416c-.466-.325-1.083.412-.607.791a5.871,5.871,0,0,0,3.7,1.906h.141a4.885,4.885,0,0,0,3.39-.325.194.194,0,1,0-.087-.379Z" transform="translate(2.328 2.774)"/><path class="c" d="M35.286,25.238c-1.982-1.43-7.442-1.332-7.756,1.928a.306.306,0,0,0,.509.217c.4-.357.639-.823,1.083-1.181a3.867,3.867,0,0,1,2.036-.921c1.083-.184,3.022-.325,4,.271C35.307,25.671,35.47,25.368,35.286,25.238Z" transform="translate(2.287 2.028)"/><path class="c" d="M44.571,18.518a13.518,13.518,0,0,1-1.495,3.867,5.947,5.947,0,0,0-.986,2.968.217.217,0,0,0,.4.108,32.267,32.267,0,0,0,1.668-3.726,7.2,7.2,0,0,0,.737-3.185C44.863,18.4,44.6,18.345,44.571,18.518Z" transform="translate(3.499 1.533)"/><path class="c" d="M49.042,18.13a7.777,7.777,0,0,0-2.686.39c-.357.076-.195.585.152.531a7.582,7.582,0,0,0,2.589-.52.227.227,0,0,0-.054-.4Z" transform="translate(3.837 1.509)"/><path class="c" d="M34.662,45.825a22.053,22.053,0,0,0-.422,2.73.238.238,0,0,0,.466.065,9.5,9.5,0,0,0,.357-2.795C35.063,45.565,34.695,45.576,34.662,45.825Z" transform="translate(2.846 3.798)"/><path class="c" d="M36.314,46.835c-.065.542-.227,1.083-.314,1.592,0,.184.238.347.336.141a4.6,4.6,0,0,0,.39-1.744C36.747,46.575,36.347,46.586,36.314,46.835Z" transform="translate(2.992 3.882)"/><path class="c" d="M30.505,6.2a2.416,2.416,0,0,0-2,1.69c-.1.249.325.422.433.184A2.026,2.026,0,0,1,30.3,6.785a1.235,1.235,0,0,1,1.408.845.2.2,0,0,0,.4-.054A1.516,1.516,0,0,0,30.505,6.2Z" transform="translate(2.367 0.516)"/><path class="c" d="M35.495,4a3.726,3.726,0,0,0-1.17.336c-.336.13-.206.661.152.552a3.8,3.8,0,0,0,1.148-.422A.249.249,0,0,0,35.495,4Z" transform="translate(2.836 0.334)"/><path class="c" d="M27.741,5.674c-.542-.52-1.679-.412-1.82.433a.206.206,0,1,0,.379.162.8.8,0,0,1,1.083-.249C27.633,6.205,27.969,5.88,27.741,5.674Z" transform="translate(2.152 0.447)"/><path class="c" d="M23.491,10.876a1.841,1.841,0,0,0-1.657.3,1.549,1.549,0,0,0-.682,1.538.282.282,0,0,0,.5.065,3.25,3.25,0,0,1,.607-1.083,1.625,1.625,0,0,1,1.181-.455C23.686,11.309,23.719,10.93,23.491,10.876Z" transform="translate(1.755 0.899)"/><path class="c" d="M17.831,17.094a1.722,1.722,0,0,0-1.95.271,1.646,1.646,0,0,0-.336,2,.3.3,0,0,0,.509-.195,1.82,1.82,0,0,1,.238-1.3,1.419,1.419,0,0,1,1.343-.477C17.885,17.484,18.037,17.181,17.831,17.094Z" transform="translate(1.273 1.408)"/><path class="c" d="M12.136,22.1c-.791,0-1.906.78-1.755,1.69a.271.271,0,0,0,.5.065,4.55,4.55,0,0,1,.433-.888,1.517,1.517,0,0,1,.877-.5.195.195,0,0,0-.054-.368Z" transform="translate(0.859 1.84)"/><path class="c" d="M11.5,8.931c-.195-.563-.888-.487-1.224-.1a1.69,1.69,0,0,0-.325.769,1.473,1.473,0,0,0,0,.942s.065.076.108,0a1.592,1.592,0,0,0,.509-.867c.108-.314.26-.639.639-.487C11.375,9.31,11.57,9.094,11.5,8.931Z" transform="translate(0.818 0.71)"/><path class="c" d="M15.468,6.129c-.249-.217-.6-.076-.877,0a2.881,2.881,0,0,0-.856.542c-.162.152.054.444.238.3a2.448,2.448,0,0,1,.78-.379c.238-.065.552,0,.715-.227a.206.206,0,0,0,0-.238Z" transform="translate(1.135 0.501)"/><path class="c" d="M6.9,14.594c-1.278-.325-3.1.91-2.589,2.351a.271.271,0,0,0,.531-.076c.087-1,.8-2.026,1.928-1.776a.26.26,0,0,0,.13-.5Z" transform="translate(0.348 1.211)"/><path class="c" d="M4.841,21.338l-.217-.509c-.108-.249-.531-.065-.433.184l.195.52a1.6,1.6,0,0,0,.271.455.184.184,0,0,0,.3-.13A1.56,1.56,0,0,0,4.841,21.338Z" transform="translate(0.344 1.724)"/><path class="c" d="M7.534,19.73a.932.932,0,0,0-.791.412.65.65,0,0,0,0,.888.249.249,0,0,0,.412-.108c0-.227,0-.639.368-.65a.271.271,0,1,0,.011-.542Z" transform="translate(0.543 1.642)"/><path class="c" d="M4.962,30.41a7.821,7.821,0,0,0-.542,1.159c-.076.238.249.347.379.162a7.5,7.5,0,0,0,.574-1.083A.238.238,0,1,0,4.962,30.41Z" transform="translate(0.363 2.521)"/><path class="c" d="M15.158,13.529a1.311,1.311,0,0,0-1.636.487,1.993,1.993,0,0,0-.4.791,1.636,1.636,0,0,0,.119.942.208.208,0,1,0,.4-.108,1.43,1.43,0,0,1,.477-1.192,3.629,3.629,0,0,1,1.083-.52A.33.33,0,0,0,15.158,13.529Z" transform="translate(1.086 1.117)"/><path class="c" d="M19.728,13.251a1.56,1.56,0,0,0-.617.6l-.585.737c-.227.282.162.693.4.4l.607-.715a1.722,1.722,0,0,0,.487-.726C20.053,13.392,19.923,13.186,19.728,13.251Z" transform="translate(1.532 1.102)"/><path class="c" d="M13.708,23.87a2.491,2.491,0,0,0-2.437,1.473.271.271,0,0,0,.455.26,2.849,2.849,0,0,1,1.982-1.148.292.292,0,0,0,0-.585Z" transform="translate(0.934 1.986)"/><path class="c" d="M4.8,35.505a3.152,3.152,0,0,0-1.083,2,.477.477,0,0,0,.953,0,.217.217,0,0,0-.3-.195,2.806,2.806,0,0,1,.8-1.484C5.41,35.635,5.107,35.289,4.8,35.505Z" transform="translate(0.306 2.949)"/><path class="c" d="M6.358,44.007a2.307,2.307,0,0,0-.867,2.069.271.271,0,0,0,.509,0A3.5,3.5,0,0,1,6.737,44.4C6.986,44.115,6.607,43.736,6.358,44.007Z" transform="translate(0.452 3.655)"/><path class="c" d="M11.85,51.269a2,2,0,0,0-.195,2.058.26.26,0,0,0,.466-.195,2.1,2.1,0,0,1,.152-1.614A.245.245,0,1,0,11.85,51.269Z" transform="translate(0.95 4.257)"/><path class="c" d="M15.368,55.444a2.036,2.036,0,0,1-1.506-.271c-.249-.184-.574.238-.336.433a1.69,1.69,0,0,0,1.95.271C15.649,55.748,15.617,55.433,15.368,55.444Z" transform="translate(1.115 4.588)"/><path class="c" d="M21.3,54.348a1.766,1.766,0,0,1-1.441,1.43c-.325,0-.249.617.076.574a2.091,2.091,0,0,0,1.906-1.928.273.273,0,1,0-.542-.076Z" transform="translate(1.631 4.503)"/><path class="c" d="M17.423,50.356a1.928,1.928,0,0,0-.552.682.206.206,0,0,0,.26.26,1.917,1.917,0,0,0,.682-.552.276.276,0,1,0-.39-.39Z" transform="translate(1.399 4.184)"/><path class="c" d="M16.9,53.12a.292.292,0,1,0,.292.292A.292.292,0,0,0,16.9,53.12Z" transform="translate(1.379 4.421)"/><path class="c" d="M13.54,49.1a.265.265,0,1,0,.265.265A.265.265,0,0,0,13.54,49.1Z" transform="translate(1.101 4.086)"/><path class="c" d="M9.254,47.176a.26.26,0,0,0-.509,0,5.633,5.633,0,0,0,0,1.7.217.217,0,0,0,.412,0,5.622,5.622,0,0,0,.1-1.7Z" transform="translate(0.719 3.909)"/><path class="c" d="M14.963,29.005a2.231,2.231,0,0,0-2.773,2.047.249.249,0,0,0,.477.065,2.166,2.166,0,0,1,2.231-1.7C15.136,29.406,15.234,29.005,14.963,29.005Z" transform="translate(1.011 2.409)"/><path class="c" d="M12.079,33.414A2.513,2.513,0,0,0,11.06,35.58a.227.227,0,0,0,.433,0c.108-.325.108-.682.238-1.007a2.242,2.242,0,0,1,.65-.877C12.653,33.544,12.338,33.241,12.079,33.414Z" transform="translate(0.916 2.777)"/><path class="c" d="M14.273,37.227c-.368.3-.737.585-1.083.921s.065.542.292.379a13.626,13.626,0,0,0,1.159-.932C15.021,37.27,14.533,36.989,14.273,37.227Z" transform="translate(1.083 3.091)"/><path class="c" d="M9.985,38.793a1.614,1.614,0,0,0-.52,2.394.271.271,0,0,0,.444-.26,1.343,1.343,0,0,1,.314-1.679C10.472,39.02,10.245,38.63,9.985,38.793Z" transform="translate(0.757 3.225)"/><path class="c" d="M16.6,42.187a2.621,2.621,0,0,1-.076-1.159c.076-.368-.477-.52-.563-.152a1.744,1.744,0,0,0,.26,1.527C16.377,42.6,16.659,42.382,16.6,42.187Z" transform="translate(1.319 3.384)"/><path class="c" d="M19.5,34.766c-.737-.617-1.971.249-1.549,1.137a.236.236,0,0,0,.433-.119c0-.433.433-.932.867-.7C19.441,35.178,19.669,34.918,19.5,34.766Z" transform="translate(1.483 2.876)"/><path class="c" d="M18.555,31.191a1.083,1.083,0,0,0-1.083.466,1.289,1.289,0,0,0-.217,1.213.208.208,0,0,0,.4-.108,1.007,1.007,0,0,1,.3-.769,1.95,1.95,0,0,1,.693-.39C18.8,31.516,18.717,31.256,18.555,31.191Z" transform="translate(1.427 2.595)"/><path class="c" d="M25.79,19a2.372,2.372,0,0,0-2.047,2.73c0,.271.444.184.466-.065A2.567,2.567,0,0,1,25.92,19.5a.26.26,0,0,0-.13-.5Z" transform="translate(1.97 1.582)"/><path class="c" d="M32.29,14.49a1.5,1.5,0,0,0-1.928.672.238.238,0,0,0,.412.238,1.213,1.213,0,0,1,1.365-.542C32.344,14.9,32.507,14.609,32.29,14.49Z" transform="translate(2.521 1.196)"/><path class="c" d="M31.013,17.94a2.589,2.589,0,0,0-1.679,1.311c-.206.282.26.531.455.271a2.253,2.253,0,0,1,1.083-.953c.477-.119.661.195,1.029.39a.217.217,0,0,0,.3-.13C32.4,18.179,31.522,17.886,31.013,17.94Z" transform="translate(2.433 1.493)"/><path class="c" d="M35.394,15.87a2.925,2.925,0,0,0-1.668.964c-.249.238.119.607.379.379a2.5,2.5,0,0,1,1.17-.726c.422-.065.639.206,1.018.282a.206.206,0,0,0,.249-.195C36.575,16.011,35.839,15.827,35.394,15.87Z" transform="translate(2.796 1.321)"/><path class="c" d="M37.421,12.1c-1-.986-2.816-.412-3.6.563-.206.249.152.617.357.357.823-1.007,1.885-.856,3-.52a.249.249,0,0,0,.238-.4Z" transform="translate(2.806 0.965)"/><path class="c" d="M41.122,15.3a1.863,1.863,0,0,0-1.462.217c-.3.162,0,.6.271.455a4.333,4.333,0,0,1,1.192-.249C41.36,15.695,41.306,15.37,41.122,15.3Z" transform="translate(3.286 1.269)"/><path class="c" d="M48.648,12.38c-.162-.477-.769-.563-1.213-.509a1.6,1.6,0,0,0-1.213.791.292.292,0,0,0,.5.292,1.083,1.083,0,0,1,.845-.5,4.669,4.669,0,0,1,.877.195.206.206,0,0,0,.206-.271Z" transform="translate(3.841 0.987)"/><path class="c" d="M49.305,14.529c-.357-.455-1.289-.173-1.711,0s0,.509.227.39a1.56,1.56,0,0,1,.747-.152,1.755,1.755,0,0,0,.65,0A.2.2,0,0,0,49.305,14.529Z" transform="translate(3.942 1.189)"/><path class="c" d="M39.523,19.121a14.135,14.135,0,0,0-2.166.845c-.206.108,0,.379.141.347a13.833,13.833,0,0,0,2.166-.639C40.021,19.555,39.881,18.992,39.523,19.121Z" transform="translate(3.098 1.59)"/><path class="c" d="M38.669,22.534a2.058,2.058,0,0,0-2.448,1.473.195.195,0,0,0,.357.152,2.047,2.047,0,0,1,1.95-1.083C38.864,23.043,39,22.588,38.669,22.534Z" transform="translate(3.01 1.871)"/><path class="c" d="M30.117,29.274l-.152,1a1.224,1.224,0,0,0,0,.812.206.206,0,0,0,.325,0,1.213,1.213,0,0,0,.217-.78l.1-1.007C30.659,29.058,30.16,28.993,30.117,29.274Z" transform="translate(2.484 2.421)"/><path class="c" d="M32.706,30.817a1.592,1.592,0,0,0-.325,1.776c.108.206.368.087.39-.108a2.578,2.578,0,0,1,.39-1.311C33.366,30.9,32.922,30.557,32.706,30.817Z" transform="translate(2.679 2.557)"/><path class="c" d="M28.527,37.235a1.322,1.322,0,0,0-.357,1.571.227.227,0,0,0,.433-.119,1.43,1.43,0,0,1,.249-1.083.246.246,0,1,0-.325-.368Z" transform="translate(2.33 3.094)"/><path class="c" d="M24.283,44.262,24.11,45a.206.206,0,0,0,.39.108l.195-.726C24.749,44.11,24.348,43.991,24.283,44.262Z" transform="translate(2.003 3.671)"/><path class="c" d="M27.63,47.672c-.282.26-.639-.314-.661-.531-.054-.5.1-.986.076-1.473a.244.244,0,0,0-.487,0c0,.8-.552,1.668.076,2.372a.877.877,0,0,0,1.451,0,.293.293,0,1,0-.455-.368Z" transform="translate(2.188 3.781)"/><path class="c" d="M25.889,28.43c-1.354.227-2.069,1.971-1.917,3.163a.227.227,0,0,0,.444,0,3.25,3.25,0,0,1,.574-1.6,5.893,5.893,0,0,1,1.2-1.083C26.452,28.723,26.17,28.376,25.889,28.43Z" transform="translate(1.989 2.366)"/><path class="c" d="M25.024,23.81c-1.213.1-1.614,1.776-1.441,2.762,0,.282.531.217.5-.065a2.026,2.026,0,0,1,.282-1.408c.238-.368.6-.607.856-.964a.227.227,0,0,0-.195-.325Z" transform="translate(1.956 1.982)"/><path class="c" d="M23,21.671a1.917,1.917,0,0,0-1.159.26,11.7,11.7,0,0,0-1.181.552c-.3.162,0,.607.271.455a10.441,10.441,0,0,1,1.192-.487,2.166,2.166,0,0,0,.964-.4A.227.227,0,0,0,23,21.671Z" transform="translate(1.705 1.803)"/></g></g></svg>