<svg xmlns="http://www.w3.org/2000/svg" width="97.795" height="120.66" viewBox="0 0 97.795 120.66"><defs><style>.a,.b{mix-blend-mode:multiply;isolation:isolate;}</style></defs><g class="a" transform="translate(6.072) rotate(3)"><g class="a" transform="translate(0 0)"><path class="b" d="M91.3,7.654a2.476,2.476,0,0,0-2.446-.682,9.422,9.422,0,0,0,.672-2.857,1.6,1.6,0,0,0,.842-1.473C90.412.958,87.555.427,86.312.236c-.9-.13-2.636-.18-3.117.722a.561.561,0,0,0-.862.441,28.547,28.547,0,0,1-2.867,8.64,15.336,15.336,0,0,1-2.8,4.551c.762-1.6,1.514-3.137,2.245-4.741a14.915,14.915,0,0,0,1.163-5.573,2.285,2.285,0,0,0,.06-3.318c-1.493-1.554-3.659-1-5.222.13-.481.361-1.614,1-1.423,1.774a.611.611,0,0,0,.531.471C73.6,6.621,73.262,9.949,72.63,13.2a17.661,17.661,0,0,1-3.739,8.089,2.936,2.936,0,0,0-.591.231c-3.7-.491-7.608-.762-11.2.431-4.2,1.393-6.606,4.962-9.192,8.3-2.937,3.8-6.014,7.548-8.7,11.557a21.26,21.26,0,0,0-2.777,5.754c-.642,2.2-1.052,4.3-2.636,6.014-1.333,1.463-2.686,2.716-3.408,4.611s-.952,4.12-2.2,5.924-2.807,3.087-3.849,4.922c-1.183,2.095-1.9,4.29-3.5,6.1-1.413,1.644-3.007,3.127-4.28,4.881a28.527,28.527,0,0,0-3.228,5.563A38.34,38.34,0,0,0,11.4,91.591a17.862,17.862,0,0,1-2.9,6.3,87.7,87.7,0,0,0-6.926,12.319C.912,111.528-.762,113.773.4,115.227c1,1.243,3.328.742,4.611.311,3.919-1.323,6.235-4.891,8.941-7.758a21.29,21.29,0,0,1,5.4-4.009,21.541,21.541,0,0,0,5.142-3.528c2.787-2.827,4.16-6.676,6.816-9.6A15.264,15.264,0,0,1,32.947,89.1h.06c2.566-2.075,5.683-3.418,8.49-5.122a22.2,22.2,0,0,0,7.437-7.407c1.844-2.907,3.4-6.164,6.014-8.48,1.674-1.483,3.639-2,5.673-2.777A15.035,15.035,0,0,0,65.152,62.6a29.81,29.81,0,0,0,6.575-9.111c3.819-7.357,8.43-16.178,5.653-24.658a12.388,12.388,0,0,0-1.093-2.476,16.6,16.6,0,0,0,3.137-1.774,30.872,30.872,0,0,0,4.771-4.23A36.085,36.085,0,0,0,88.056,15.5a27.907,27.907,0,0,0,1.7-2.937c.21-.421.441-.852.621-1.3a2.075,2.075,0,0,0,.6-.361A2.255,2.255,0,0,0,91.3,7.654Zm-7.4-5.874c.2-1.514,5.884-.14,5.3,1.183-.411,1-2.777.371-3.458.2a3.538,3.538,0,0,1-2-1.123.491.491,0,0,0,.16-.261Zm-8.32.07A5.092,5.092,0,0,1,77,1.118c1-.3,2.736.08,2.807,1.443.06,1.143-1.353,1.473-2.215,1.283A5.764,5.764,0,0,1,75.116,2.2ZM71.578,50.966a38.39,38.39,0,0,1-5.864,9.322,15.236,15.236,0,0,1-4.18,3.248c-1.764.9-3.769,1.223-5.493,2.215C50.308,69.038,48.874,76.285,44.1,80.515a21.631,21.631,0,0,1-3.177,2.3,10.665,10.665,0,0,1-3.959-1,12.339,12.339,0,0,1-3.308-3.077A.281.281,0,0,0,33.2,79c.852,2.376,4.009,4.34,6.746,4.41-.892.511-1.814,1-2.716,1.494A4.661,4.661,0,0,1,34.31,82.72a.241.241,0,0,0-.441.19,3.558,3.558,0,0,0,2.626,2.4q-1.068.586-2.1,1.233a18.814,18.814,0,0,0-2.616,2,4.29,4.29,0,0,1-2.125-1,.092.092,0,1,0-.13.13,5.493,5.493,0,0,0,1.824,1.3,26.843,26.843,0,0,0-4.15,5.383,30.762,30.762,0,0,1-3.137,4.531,13.262,13.262,0,0,1-2.406,2.075.17.17,0,0,0-.221-.14,2.2,2.2,0,0,1-2.185-.391.226.226,0,0,0-.331.251,1.674,1.674,0,0,0,1.754.912c-.541.331-1.083.642-1.644.952a24.147,24.147,0,0,0-4.8,3.218,56.826,56.826,0,0,0-4.009,4.41,15.4,15.4,0,0,1-4.591,3.819,7.016,7.016,0,0,1-3.007.782c-.672,0-1.443-.05-1.433-.942A4.45,4.45,0,0,1,2,112.079c2-3.919,3.809-8.019,6.275-11.687a31.7,31.7,0,0,0,3.308-5.212A55.279,55.279,0,0,0,13.3,89.356a27.736,27.736,0,0,1,2.556-5.914,3.218,3.218,0,0,0,2.636,2.2.2.2,0,0,0,.1-.381,5.543,5.543,0,0,1-2.446-2.315Q16.719,82,17.36,81.1a6.014,6.014,0,0,0,5.774,3.228c.291,0,.281-.521,0-.571a9.6,9.6,0,0,1-3.458-1.163,7.327,7.327,0,0,1-2-1.955c.551-.732,1.133-1.433,1.744-2.115A29.068,29.068,0,0,0,23.364,73.8c1-1.754,1.624-3.739,2.867-5.373.722-1,1.564-1.814,2.315-2.736.321,1.183,1.694,2.2,2.857,1.684a.251.251,0,0,0-.06-.461,3.639,3.639,0,0,1-1.544-.5,2.336,2.336,0,0,1-.862-1.223,10.637,10.637,0,0,0,.762-1.083,5.5,5.5,0,0,0,1.914,2.346,4.651,4.651,0,0,0,3.258,1.133.281.281,0,0,0,.07-.511,23.168,23.168,0,0,1-2.947-1.183,9.2,9.2,0,0,1-2.075-2.185h0c.872-1.724,1-3.669,1.794-5.433s2.426-3.007,3.629-4.561A13.412,13.412,0,0,0,37.437,48.7c1.143-4.27,3.759-7.608,6.4-11.026,2.837-3.709,5.5-7.608,8.51-11.176,2.787-3.328,6.505-4.491,10.755-4.551,1.473,0,2.957.07,4.43.17-1.1,1.413-.521,3.929.862,5.1a4.1,4.1,0,0,0,3.518.852,5.012,5.012,0,0,0,2.386-1.233,5.363,5.363,0,0,0,.561-.08H75.1c4.2,8.069.08,16.81-3.548,24.2ZM89.109,11.984c-.511.872-1,1.744-1.6,2.576a37.777,37.777,0,0,1-3.779,4.8,32.216,32.216,0,0,1-4.43,4.009,16.228,16.228,0,0,1-2.636,1.6,10.564,10.564,0,0,1-1.734.6.451.451,0,0,0-.672-.3,4.719,4.719,0,0,0-.471.381l-.09.08a4.781,4.781,0,0,1-1.5,1.1,3.137,3.137,0,0,1-2.656-.12c-1.764-1-2.215-3.679-.231-4.691a.371.371,0,0,0,.2-.431c2.366-1.714,3.428-4.922,4.009-7.638.762-3.388,1.083-6.886,1.514-10.344,1.233,1,2.726,1.834,4.33,1.133a18.825,18.825,0,0,1-1.524,5.232c-1,2-2,4.06-3.007,6.094a.521.521,0,0,0,.7.7c2.456-1.253,3.759-3.739,4.871-6.134a34.351,34.351,0,0,0,2.8-7.678,5.864,5.864,0,0,0,3.448,1.453,6.465,6.465,0,0,0,2.325,0,15.917,15.917,0,0,1-2.927,5.733,66.316,66.316,0,0,1-5.5,5.613c-.351.361.11,1,.551.712a24.838,24.838,0,0,0,5.834-5.954q.321-.431.621-.882a2.115,2.115,0,0,0,.281.7A2.265,2.265,0,0,0,89.5,11.4,2.194,2.194,0,0,0,89.109,11.984Zm1.554-2.145a.15.15,0,0,0-.18,0,3.871,3.871,0,0,0-.461.561,1.323,1.323,0,0,1-1.564-.6,1.554,1.554,0,0,1,0-1.664h.1A2.205,2.205,0,0,1,90.3,8.2a1.183,1.183,0,0,1,.361,1.624Z"/><path class="b" d="M7.32.043c-1.213.8-2.225,1.9-3.438,2.736A31.374,31.374,0,0,1,.093,4.995a.153.153,0,1,0,.12.281,18.664,18.664,0,0,0,4.17-2A12.309,12.309,0,0,0,7.731.454C7.861.2,7.53-.117,7.32.043Z" transform="translate(72.868 17.885)"/><path class="b" d="M7.841,3.834A8.53,8.53,0,0,0,.223.015c-.231,0-.331.391-.06.441A13.171,13.171,0,0,1,4.082,1.648,10.324,10.324,0,0,1,7.239,4.335C7.49,4.7,8.091,4.224,7.841,3.834Z" transform="translate(43.88 39.624)"/><path class="b" d="M2.207,1.264A5.9,5.9,0,0,0,1.325.512C1.034.3.713-.019.322,0c-.18,0-.391.2-.3.4.16.381.521.521.862.712A6.1,6.1,0,0,0,2,1.625a.21.21,0,0,0,.21-.361Z" transform="translate(46.597 36.711)"/><path class="b" d="M7.489,6.114A15.857,15.857,0,0,0,4.1,2.406C3.1,1.574,1.645.1.322,0A.331.331,0,0,0,.042.491,4.5,4.5,0,0,0,1.5,1.584,22.051,22.051,0,0,1,3.64,3.127c1.243,1,2.265,2.215,3.408,3.328a.281.281,0,0,0,.441-.341Z" transform="translate(56.892 52.87)"/><path class="b" d="M3.691,1.644c-.611-.351-1.223-.672-1.844-1A3.358,3.358,0,0,0,.253,0a.261.261,0,0,0-.18.441,3.478,3.478,0,0,0,1.524.8c.642.261,1.293.521,1.945.772C3.761,2.095,3.892,1.754,3.691,1.644Z" transform="translate(58.805 59.456)"/><path class="b" d="M8.2,4.816A37.308,37.308,0,0,1,2.764.807C1.992.075.559-.566.017.807c-.1.241.261.421.421.251.8-.812,1.674.331,2.215.842A16.229,16.229,0,0,0,4.277,3.253,10.224,10.224,0,0,0,8.086,5.107a.155.155,0,1,0,.11-.291Z" transform="translate(40.357 61.355)"/><path class="b" d="M6.156,1.568c-.08,0-.12.1,0,.13l.15.652a.882.882,0,0,1-.611.251,2.786,2.786,0,0,1-.732,0A5.4,5.4,0,0,1,3.1,2.149,7.588,7.588,0,0,1,.483.095C.252-.166-.109.165.031.445A5.453,5.453,0,0,0,4.923,3.362c.561,0,1.564-.07,1.784-.732a.842.842,0,0,0-.551-1.063Z" transform="translate(17.529 95.827)"/><path class="b" d="M4.237,1.273C2.834.892,1.49.451.117,0c-.08,0-.16.09-.09.15a7.3,7.3,0,0,0,4.15,1.584.232.232,0,1,0,.06-.461Z" transform="translate(8.452 100.923)"/><path class="b" d="M10.977.007c-2-.11-4.31,1.163-5.924,2.305A39.2,39.2,0,0,0,.041,6.943a.231.231,0,0,0,.321.321,35.313,35.313,0,0,1,4.992-4.18,15.717,15.717,0,0,1,2.6-1.453A24.908,24.908,0,0,1,11.107.748a.391.391,0,0,0-.13-.742Z" transform="translate(50.778 23.935)"/><path class="b" d="M5.768.09c-.662,2.6-1.493,5.172-2.366,7.7-.451,1.293-.932,2.576-1.493,3.819S.586,14.073.025,15.356c-.12.271.221.621.451.351A22.914,22.914,0,0,0,3.9,8.52C4.826,5.784,5.378,2.967,6.089.17A.17.17,0,0,0,5.768.09Z" transform="translate(67.673 39.629)"/></g></g></svg>