<svg xmlns="http://www.w3.org/2000/svg" width="74.975" height="72.055" viewBox="0 0 74.975 72.055"><defs><style>.a,.b{mix-blend-mode:multiply;isolation:isolate;}</style></defs><g class="a"><g class="a" transform="translate(0 0)"><path class="b" d="M70.724,42.243C64.777,31.693,55.082,23.97,47.056,15.055,43.329,10.96,39.343,5.988,33.938,4.331a.487.487,0,0,0-.173-.574,8.308,8.308,0,0,0-4.138-1.538,10.832,10.832,0,0,0-4.17.737c-1.7.487-1.549-.661-2.166-1.7a2.632,2.632,0,0,0-1.213-1,5.514,5.514,0,0,0-3.813.227.52.52,0,0,0-.227.856c.791.9,2.166,2.676,2.166,3.954,0,.921-.769,1.376-1.289,2.026a6.3,6.3,0,0,0-.867,1.441,10.832,10.832,0,0,0-.152,7.182c-.087,6.077,3.163,11.915,6.2,16.92l.921,1.516a33.482,33.482,0,0,0-8.763-.921c-2.925,0-5.968,0-8.568,1.527A15.988,15.988,0,0,0,0,48a16.963,16.963,0,0,0,4.95,12.663,30.7,30.7,0,0,0,7.42,4.9,18.079,18.079,0,0,0,8.547,1.863A36.45,36.45,0,0,0,40.08,61.958c.639-.39,0-1.4-.585-1.007A35.681,35.681,0,0,1,24,66.074a23.463,23.463,0,0,1-8.3-.433A28.1,28.1,0,0,1,8.288,61.8c-8.482-5.535-9.63-18.122-1.6-24.708,5.189-4.257,12.674-1.961,18.783-1.917,1.289,2.112,2.556,4.235,3.661,6.5,1.581,3.2,2.708,6.6,4.463,9.749a87.122,87.122,0,0,0,5.7,8.536A40.837,40.837,0,0,0,45.658,67.1c4.766,4.04,10.832,6.109,17,4.333,5.308-1.506,10.074-5.514,11.677-10.908C76.161,54.278,73.724,47.659,70.724,42.243Zm-52.395-30.7A6.922,6.922,0,0,1,20.582,7c1.506-1.581-.054-4.17-1.3-5.752,1.376-.357,2.708-.379,3.466,1.17.4.856.953,1.9,2.058,1.841a5.416,5.416,0,0,0,1.6-.617A7.192,7.192,0,0,1,28.9,3.172a7.3,7.3,0,0,1,3.347.78A12.7,12.7,0,0,0,30.277,3.8a12.565,12.565,0,0,0-11.915,8.926,10.323,10.323,0,0,1-.033-1.181Zm55.2,44.78a14.58,14.58,0,0,1-9.261,13C58.4,71.815,52.2,70.407,47.294,66.583c-4.734-3.759-8.3-9.175-11.46-14.19A74.45,74.45,0,0,1,31.2,42.85a74.741,74.741,0,0,0-5.059-9.066c-3.369-5.416-6.5-10.735-7.582-16.952a.238.238,0,0,0,.108-.217q0-.374,0-.747a.509.509,0,0,0,.227-.368A11.385,11.385,0,0,1,31.057,5.187c6.228.563,10.55,5.828,14.407,10.171C52.764,23.58,61.495,30.675,67.6,39.9,70.789,44.7,73.659,50.411,73.529,56.325Z" transform="translate(0.012 -0.021)"/><path class="b" d="M51.92,39.5a.379.379,0,0,0-.639.368c.7,1.961,1.874,3.715,2.3,5.784s0,4.734-1.982,5.99c-2.166,1.376-4.333-.076-6.109-1.451a32.355,32.355,0,0,1-4.138-3.943,77.483,77.483,0,0,1-7.42-9.976c-2.275-3.6-2.6-7.853-4.571-11.58s-4.777-6.835-5.773-10.995a.218.218,0,1,0-.433.054c.162,4.17,3.076,7.474,4.972,10.984a35.746,35.746,0,0,1,2.491,7.214,21.9,21.9,0,0,0,3.206,6.283,68.394,68.394,0,0,0,8.763,11.005c2.654,2.524,6.651,5.958,10.215,3.033C56.73,49.029,54.639,42.8,51.92,39.5Z" transform="translate(1.939 1.1)"/><path class="b" d="M60.471,43.005c-.162-.195-.433.087-.282.282a10.42,10.42,0,0,1,2.026,4.105A3.065,3.065,0,0,1,61.2,50.317c-.444.531-.877,1.376-1.571,1.592a.282.282,0,0,0,0,.542c.921.292,1.365-.5,1.906-1.159a6.434,6.434,0,0,0,1.549-2.437C63.493,46.8,61.673,44.457,60.471,43.005Z" transform="translate(4.958 3.55)"/><path class="b" d="M61.717,60.541a4.03,4.03,0,0,0-1.549.357,3.25,3.25,0,0,0-1.2.812,2.838,2.838,0,0,0-.812,2.5.13.13,0,0,0,.249,0,3.553,3.553,0,0,1,1.43-2.34c.617-.4,1.744-.271,2.166-.942a.26.26,0,0,0-.282-.39Z" transform="translate(4.849 5.014)"/><path class="b" d="M3.2,40.348a5.546,5.546,0,0,0-.693,3.13A25.824,25.824,0,0,1,2,47.638a.347.347,0,0,0,.628.26,5.308,5.308,0,0,0,.682-3.163,31.078,31.078,0,0,1,.3-4.214.227.227,0,0,0-.412-.173Z" transform="translate(0.179 3.326)"/><path class="b" d="M26.272,51.7a4.528,4.528,0,0,0-1.538,0,4.614,4.614,0,0,1-3.055-.574,11.59,11.59,0,0,0-3.564-1.083c-2.676-.347-5.925,1.267-8.254-.477-.076-.054-.195.054-.141.141,1.657,2.242,4.679,1,6.987,1.029a12.522,12.522,0,0,1,5.351,1.538c1.387.65,2.708.206,4.16.087C26.576,52.323,26.717,51.76,26.272,51.7Z" transform="translate(0.821 4.1)"/><path class="b" d="M29.992,56.592a24.394,24.394,0,0,1-5.784,2.015,37.426,37.426,0,0,1-6.965.227.179.179,0,0,0,0,.357,33.839,33.839,0,0,0,7.149.076c1.95-.271,4.4-.812,5.849-2.253C30.382,56.851,30.209,56.483,29.992,56.592Z" transform="translate(1.434 4.684)"/><path class="b" d="M17.837,33.1c-3,1.083-6.369.8-9,2.762-.162.119,0,.4.162.282,2.621-1.841,6.088-1.365,9.012-2.437A.316.316,0,0,0,17.837,33.1Z" transform="translate(0.743 2.73)"/></g></g></svg>