<svg xmlns="http://www.w3.org/2000/svg" xmlns:xlink="http://www.w3.org/1999/xlink" width="1586" height="211" viewBox="0 0 1586 211"><defs><style>.a{fill:#fff;}.b,.g{fill:none;}.c{fill:#3b5998;}.c,.d,.e{fill-rule:evenodd;}.d{fill:#03a9f4;}.e{fill:url(#c);}.f{fill:#030303;font-size:16px;font-family:ArialRoundedMTBold, Arial Rounded MT Bold;}.g{stroke:#707070;}.h{filter:url(#a);}</style><filter id="a" x="0" y="0" width="1586" height="211" filterUnits="userSpaceOnUse"><feOffset dy="-1" input="SourceAlpha"/><feGaussianBlur stdDeviation="13" result="b"/><feFlood flood-opacity="0.078"/><feComposite operator="in" in2="b"/><feComposite in="SourceGraphic"/></filter><linearGradient id="c" x1="1.615" y1="1.537" x2="-0.167" y2="-0.133" gradientUnits="objectBoundingBox"><stop offset="0" stop-color="#f58529"/><stop offset="0.385" stop-color="#feda77"/><stop offset="0.795" stop-color="#dd2a7b"/><stop offset="1" stop-color="#515bd4"/></linearGradient></defs><g transform="translate(-1674.046 -899.349)"><g class="h" transform="matrix(1, 0, 0, 1, 1674.05, 899.35)"><rect class="a" width="1508" height="133" transform="translate(39 40)"/></g><g transform="translate(2330.732 993.02)"><g transform="translate(246.749 0)"><rect class="b" width="25.878" height="26.913"/><path class="c" d="M88.8,25.968V14.138H92.84l.577-4.616H88.8V6.636c0-1.3.433-2.308,2.308-2.308h2.452V.144C92.984.144,91.541,0,89.954,0c-3.462,0-5.915,2.164-5.915,6.059V9.521H80v4.616h4.039v11.83Z" transform="translate(-73.751 0.473)"/></g><g transform="translate(139.412 0)"><rect class="b" width="25.878" height="26.913" transform="translate(0.422)"/><path class="d" d="M46.223,23.063A15.013,15.013,0,0,0,61.371,7.915V7.194a11.727,11.727,0,0,0,2.6-2.741,11.976,11.976,0,0,1-3.03.866,5.613,5.613,0,0,0,2.308-2.885,13.233,13.233,0,0,1-3.318,1.3A5.152,5.152,0,0,0,56.033,2,5.42,5.42,0,0,0,50.7,7.338a2.812,2.812,0,0,0,.144,1.154A14.915,14.915,0,0,1,39.875,2.866a5.525,5.525,0,0,0-.721,2.741,5.732,5.732,0,0,0,2.308,4.472,4.863,4.863,0,0,1-2.452-.721h0a5.272,5.272,0,0,0,4.328,5.194A4.447,4.447,0,0,1,41.9,14.7a2.455,2.455,0,0,1-1.01-.144A5.465,5.465,0,0,0,45.935,18.3,10.892,10.892,0,0,1,39.3,20.61a3.994,3.994,0,0,1-1.3-.144,13.617,13.617,0,0,0,8.223,2.6" transform="translate(-38 1.719)"/></g><g transform="translate(0 0.473)"><path class="e" d="M12.984,2.308a39.811,39.811,0,0,1,5.194.144,6.691,6.691,0,0,1,2.452.433,5.067,5.067,0,0,1,2.452,2.452,6.691,6.691,0,0,1,.433,2.452c0,1.3.144,1.731.144,5.194a39.812,39.812,0,0,1-.144,5.194,6.691,6.691,0,0,1-.433,2.452,5.067,5.067,0,0,1-2.452,2.452,6.691,6.691,0,0,1-2.452.433c-1.3,0-1.731.144-5.194.144a39.812,39.812,0,0,1-5.194-.144,6.691,6.691,0,0,1-2.452-.433A5.067,5.067,0,0,1,2.885,20.63a6.691,6.691,0,0,1-.433-2.452c0-1.3-.144-1.731-.144-5.194A39.811,39.811,0,0,1,2.452,7.79a6.691,6.691,0,0,1,.433-2.452A5.181,5.181,0,0,1,3.9,3.9a2.439,2.439,0,0,1,1.443-1.01A6.691,6.691,0,0,1,7.79,2.452a39.811,39.811,0,0,1,5.194-.144m0-2.308A42.626,42.626,0,0,0,7.646.144,8.906,8.906,0,0,0,4.472.721,5.648,5.648,0,0,0,2.164,2.164,5.648,5.648,0,0,0,.721,4.472,6.573,6.573,0,0,0,.144,7.646,42.626,42.626,0,0,0,0,12.984a42.626,42.626,0,0,0,.144,5.338A8.906,8.906,0,0,0,.721,21.5,5.648,5.648,0,0,0,2.164,23.8a5.648,5.648,0,0,0,2.308,1.443,8.906,8.906,0,0,0,3.174.577,42.626,42.626,0,0,0,5.338.144,42.626,42.626,0,0,0,5.338-.144,8.906,8.906,0,0,0,3.174-.577A6.053,6.053,0,0,0,25.246,21.5a8.906,8.906,0,0,0,.577-3.174c0-1.443.144-1.875.144-5.338a42.626,42.626,0,0,0-.144-5.338,8.906,8.906,0,0,0-.577-3.174A5.648,5.648,0,0,0,23.8,2.164,5.648,5.648,0,0,0,21.5.721,8.906,8.906,0,0,0,18.322.144,42.626,42.626,0,0,0,12.984,0m0,6.348a6.529,6.529,0,0,0-6.636,6.636,6.636,6.636,0,1,0,6.636-6.636m0,10.964a4.251,4.251,0,0,1-4.328-4.328,4.251,4.251,0,0,1,4.328-4.328,4.251,4.251,0,0,1,4.328,4.328,4.251,4.251,0,0,1-4.328,4.328m6.925-12.84A1.587,1.587,0,1,0,21.5,6.059a1.6,1.6,0,0,0-1.587-1.587"/></g></g><text class="f" transform="translate(2815.046 1009.229)"><tspan x="-26.785" y="0">LEGAL</tspan></text><text class="f" transform="translate(2055.046 1010.229)"><tspan x="0" y="0">CONTACT US</tspan></text><line class="g" y2="69.121" transform="translate(2714.86 972.309)"/><line class="g" y2="69.121" transform="translate(2220.018 972.309)"/></g></svg>