<svg xmlns="http://www.w3.org/2000/svg" width="506.606" height="463.051" viewBox="0 0 506.606 463.051"><defs><style>.a{fill:#dcc9cd;}.b{fill:#d2bfbf;}.c{fill:#cdb6b6;}.d{fill:#f4f4f4;}.e{fill:#dbdbee;}.f{fill:#efefff;}.g{fill:#7e4335;}.h{fill:#6d3529;}.i{fill:#d08a7b;}.j,.m{fill:#9a5d5d;}.j,.l{opacity:0.1;}.k{fill:#dd9c83;}.n{fill:#1b2c3e;}.o{fill:#c04930;}.p{fill:#dfafa1;}.q{fill:#efbdae;}.r{fill:#e8ae9c;opacity:0.73;}.s{fill:#e08c98;}.t{fill:#353e4c;}.u{fill:#2b333f;}.v{fill:#bc807a;}.w{fill:#4b5e97;}.x{fill:#29303f;}.y{fill:#030928;}.z{fill:#353c4f;}.aa{fill:#602530;}.ab{fill:#682932;}.ac{fill:#21263a;}.ad{fill:#4b515b;}.ae{fill:#3c434c;}.af{fill:#e9d6cf;}.ag{fill:#99625c;}.ah{fill:#fff;}.ai{fill:#68492c;}.aj{fill:#604324;}.ak{fill:#442c17;}.al{fill:#e3ebed;}.am{fill:#e39c86;}.an{fill:#f0f4b8;}.ao{fill:#f2c91d;}.ap{fill:#feffe1;}.aq{fill:none;stroke:#c19f10;stroke-miterlimit:10;stroke-width:0.75px;}.ar{fill:#36391c;}.as{fill:#b3be49;}.at{fill:#9db56f;}.au{fill:#c4c4bf;}.av{fill:#c9bdc0;}.aw,.ax{fill:#d6d7cf;}.aw{opacity:0.38;}.ay{fill:#6c7137;}.az{fill:#846741;}.ba{fill:#775a37;}.bb{fill:#5b4227;}.bc{fill:#5867a5;}.bd{fill:#7987b7;}.be{fill:#939ece;}.bf{fill:#6c77b7;}</style></defs><g transform="translate(0)"><rect class="a" width="173.928" height="258.45" transform="translate(263.473)"/><rect class="b" width="157.255" height="237.21" transform="translate(271.81 9.336)"/><rect class="c" width="191.925" height="8.74" transform="translate(254.479 258.45)"/><rect class="d" width="145.806" height="231.915" transform="translate(277.534 14.631)"/><rect class="b" width="151.075" height="2.937" transform="translate(275.527 76.467)"/><path class="e" d="M456.493,169.695a29.8,29.8,0,0,0-13.149-2.84,41.2,41.2,0,0,0-19.206,5.3c-5.19,2.823-9.783,6.478-15.3,8.766s-12.474,3.1-17.532.1-6.68-8.766-8.415-13.938a84.527,84.527,0,0,0-8.328-17.664c-3.314-5.33-7.53-10.589-13.789-13.281-9.362-4.032-21.2-1.113-29,4.927a46.267,46.267,0,0,0-14.56,20.144c-1.3,3.638-.473,7.714-.473,11.536v90.37h145.8V188.8c0-5.216,2.112-12.965-2.411-16.743A18.654,18.654,0,0,0,456.493,169.695Z" transform="translate(-39.201 -16.569)"/><path class="f" d="M461.083,195.773c-1.56,3.506-3.673,7.311-7.477,9.336-3.033,1.613-6.539,1.587-9.967,1.3-6.434-.535-11.948-1.517-16.839,2.937-3.91,3.559-6.206,8.223-9,12.43s-5.917,8.284-11,10.362c-6.347,2.586-13.894.877-19.583-2.209-7.837-4.225-13.263-10.835-20.276-15.928-9.038-6.54-20.486-10.125-31.987-6.575a33.39,33.39,0,0,0-18.2,13.57v49.169H462.574V195.835c0-1.368.149-2.91.28-4.515C462.32,192.793,461.741,194.327,461.083,195.773Z" transform="translate(-39.233 -23.607)"/><rect class="b" width="155.282" height="3.2" transform="translate(271.81 135.62)"/><rect class="b" width="157.255" height="3.2" transform="translate(271.81 194.905)"/><rect class="b" width="3.506" height="170.325" transform="translate(348.689 76.344)"/><rect class="a" width="173.928" height="258.45" transform="translate(70.4)"/><rect class="b" width="157.255" height="237.21" transform="translate(78.737 9.336)"/><rect class="c" width="191.925" height="8.74" transform="translate(61.406 258.45)"/><rect class="d" width="145.806" height="231.915" transform="translate(84.461 14.631)"/><rect class="b" width="151.075" height="2.937" transform="translate(82.454 76.467)"/><path class="e" d="M236.243,169.695a29.8,29.8,0,0,0-13.149-2.84,41.2,41.2,0,0,0-19.242,5.3c-5.19,2.823-9.783,6.478-15.3,8.766s-12.474,3.1-17.532.1-6.68-8.766-8.415-13.938a84.537,84.537,0,0,0-8.328-17.664c-3.314-5.33-7.53-10.589-13.789-13.281-9.362-4.032-21.2-1.113-29,4.927a46.268,46.268,0,0,0-14.525,20.144c-1.3,3.638-.473,7.714-.473,11.536v90.37h145.8V188.8c0-5.216,2.113-12.965-2.411-16.743A18.653,18.653,0,0,0,236.243,169.695Z" transform="translate(-12.024 -16.569)"/><path class="f" d="M240.836,195.773c-1.56,3.506-3.673,7.311-7.478,9.336-3.033,1.613-6.539,1.587-9.967,1.3-6.434-.535-11.948-1.517-16.84,2.937-3.91,3.559-6.206,8.223-9,12.43s-5.917,8.284-11,10.362c-6.347,2.586-13.894.877-19.583-2.209-7.837-4.225-13.246-10.861-20.258-15.937-9.038-6.54-20.486-10.125-31.987-6.575a33.39,33.39,0,0,0-18.2,13.57v49.169H242.326V195.835c0-1.368.149-2.91.281-4.515C242.072,192.793,241.485,194.327,240.836,195.773Z" transform="translate(-12.059 -23.607)"/><rect class="b" width="155.282" height="3.2" transform="translate(78.737 135.62)"/><rect class="b" width="157.255" height="3.2" transform="translate(78.737 194.905)"/><rect class="b" width="3.506" height="170.325" transform="translate(155.616 76.344)"/><path class="g" d="M380.681,97.1c-6.014,7.337-7.083,17.471-7.276,26.964s.158,19.355-3.761,28c-3.778,8.354-11.072,14.5-18.137,20.355l-8.617,7.136a128.992,128.992,0,0,0,21.389,13.973l6.759-7.267c-.543.14-1.63,5.645-1.823,6.4-.421,1.6-.877,2.788.5,3.989,2.717,2.428,8.582,2.858,12.027,3.279,22.792,2.823,45.715-3.051,67.4-10.519,11.4-3.945,22.73-8.4,32.943-14.841l-4.821-9.424a55.031,55.031,0,0,0,8.959,6.855l11.668-9.152a11.256,11.256,0,0,1-4.62-5.093c1.525,2.183,4.8,2.472,7.223,1.376s4.2-3.226,5.882-5.26a6.923,6.923,0,0,0,1.972-3.892c0-.324-7.407-4.593-8.2-5.26-2.148-1.753-3.866-4.225-5.873-6.241-4.76-4.769-9.2-9.844-13.552-14.99-8.687-10.3-17-20.968-26.71-30.357q-2.463-2.384-5.058-4.646c-4.839-4.208-10.116-8.074-16.182-10.151-9.2-3.147-19.347-1.893-28.683.806-10.923,3.156-22.371,9.459-25.483,20.39" transform="translate(-42.459 -9.436)"/><path class="h" d="M382.02,82.766a23.669,23.669,0,0,0-7.5,8.38c-2.007,4-2.472,8.608-2.358,13.079a74.652,74.652,0,0,0,1.657,13.219,113.211,113.211,0,0,0,6.829,21.7c1.4-.877,1.7-2.814,1.867-4.479.964-9.643,1.876-19.776,7.083-27.981,4.059-6.408,18.47-15.7,17.12-24.142C405.136,72.667,386.569,79.5,382.02,82.766Z" transform="translate(-46.068 -9.551)"/><path class="i" d="M433.453,124.752c.167.368,14.745,22.573,14.9,22.853-.465,4.225-14.552,17.953-19.163,20.819a4.243,4.243,0,0,1-2.507.877c-1.376-.123-13.552-21.345-16.656-25.115C416.771,139.69,432.664,123.017,433.453,124.752Z" transform="translate(-50.743 -15.378)"/><path class="j" d="M427.743,148.867c3.506-7.241,4.488-15.542,4.3-23.607-4.173,2.8-16.34,15.218-22.038,19.057,1.613,1.946,5.628,8.529,9.327,14.464A24.939,24.939,0,0,0,427.743,148.867Z" transform="translate(-50.74 -15.456)"/><path class="k" d="M395.86,81.724a24.308,24.308,0,0,0-8.328,7.241,34.372,34.372,0,0,0-6.873,21.249,71.259,71.259,0,0,0,5.032,23.581c1.911,4.9,4.506,9.713,8.6,13.009a11.536,11.536,0,0,0,6.312,2.77c2.63.175,5.172-.938,7.5-2.165a64.648,64.648,0,0,0,10.6-7.013,29.436,29.436,0,0,0,7.591-8.477,33.184,33.184,0,0,0,2.086-4.953q1.262-3.594,2.306-7.25c.614-2.139,1.639-4.19,2-6.39a40.558,40.558,0,0,0,.517-6.54,46.219,46.219,0,0,0-1.753-12.465c-1.026-3.647-2.472-8.564-5-11.492-1.85-2.148-6.215-2.91-8.9-3.331a47.451,47.451,0,0,0-11.343-.193,30.489,30.489,0,0,0-9.231,1.876Q396.456,81.444,395.86,81.724Z" transform="translate(-47.119 -9.755)"/><g class="l" transform="translate(336.521 69.317)"><path class="m" d="M431.923,94.341c-1.026-3.647-2.472-8.564-5-11.492-1.85-2.148-6.215-2.91-8.9-3.331a47.458,47.458,0,0,0-11.343-.193,30.488,30.488,0,0,0-9.231,1.876q-.579.245-1.14.526a24.307,24.307,0,0,0-8.328,7.241,33.814,33.814,0,0,0-3.927,6.7,7.415,7.415,0,0,0,1.376,3.165c1.867,2.463,5,3.691,7.889,4.55,6.426,1.92,13,2.218,18.926,5.672,6.855,4.006,12.5,9.993,17,16.77.684-2.016,1.333-4.041,1.92-6.092s1.639-4.19,2-6.39a40.592,40.592,0,0,0,.517-6.539,46.234,46.234,0,0,0-1.762-12.457Z" transform="translate(-384.06 -79.074)"/></g><g class="l" transform="translate(338.541 110.312)"><path class="m" d="M389.192,126.568a5.628,5.628,0,0,1-.535,4.734c-.675,1.078-1.753,1.937-2.139,3.138a4.032,4.032,0,0,0,1.648,4.462,1.955,1.955,0,0,0,1.657.394,2.279,2.279,0,0,0,.877-.684,8.275,8.275,0,0,0,2.446-4.742,9.248,9.248,0,0,0-.964-4.383,6.848,6.848,0,0,0-2.893-3.647" transform="translate(-386.364 -125.84)"/></g><path class="k" d="M429.086,116.685a8.6,8.6,0,0,1,6.618-5.663c4.628-.763,6.294,6.75,5.128,9.95-1.043,2.875-3.945,4.813-6.583,6.066-3.024,1.438-6.408,2.744-9.739,1.657" transform="translate(-52.53 -13.693)"/><g class="l" transform="translate(378.602 100.102)"><path class="m" d="M439.073,122.343c-1.622,2.463-4.041,3.322-6.741,3.91-.8-1.569.377-5.163,1.052-6.706a9.643,9.643,0,0,1,5.154-5.26.824.824,0,0,1,.666-.044.815.815,0,0,1,.3.351,7.653,7.653,0,0,1-.43,7.749Z" transform="translate(-432.065 -114.193)"/></g><path class="n" d="M388.831,139.16a9.934,9.934,0,0,1-2.043-2.691,4.384,4.384,0,0,1-.421-1.587,2.831,2.831,0,0,1,.552-1.709,21.823,21.823,0,0,1,1.376-1.7,5.488,5.488,0,0,0,1.183-2.218,8.2,8.2,0,0,0-.4-4.725,28.067,28.067,0,0,0-1.631-3.436c-1.026-1.876-1.438-3.129-1.525-3.1a8.89,8.89,0,0,0,1.087,3.322,36.563,36.563,0,0,1,1.464,3.428,7.89,7.89,0,0,1,.333,4.383c-.333,1.517-1.639,2.472-2.428,3.743a3.375,3.375,0,0,0-.587,2.086,4.716,4.716,0,0,0,.552,1.753C387.446,138.66,388.822,139.239,388.831,139.16Z" transform="translate(-47.752 -14.559)"/><path class="n" d="M393.31,138.872c-.123-.149-.57,0-1.052.324s-.877.6-.78.78.6.132,1.131-.193S393.433,138.977,393.31,138.872Z" transform="translate(-48.452 -17.129)"/><path class="n" d="M437.635,115.21a4.908,4.908,0,0,0-1.753,1.166,12.912,12.912,0,0,0-4.217,8.95,4.91,4.91,0,0,0,.2,2.078c.193,0-.123-3.235,1.552-6.715S437.775,115.35,437.635,115.21Z" transform="translate(-53.409 -14.216)"/><path class="n" d="M434.628,124.748c.053.053.412-.167.824-.7a5.119,5.119,0,0,0,.57-5.04,1.884,1.884,0,0,0-.649-.877,7.64,7.64,0,0,1,.438,3.4A12.989,12.989,0,0,1,434.628,124.748Z" transform="translate(-53.777 -14.576)"/><path class="n" d="M396.253,122.131a2,2,0,0,1,2.726-.719,2.078,2.078,0,0,1,.929,1.218l.061.237a2.06,2.06,0,0,1-.2,1.517,2,2,0,0,1-2.726.719,2.078,2.078,0,0,1-.929-1.218l-.061-.237A2.06,2.06,0,0,1,396.253,122.131Z" transform="translate(-49.011 -14.948)"/><path class="j" d="M397.324,134.741c-1.692-1.271-2.735-3.349-1.253-5.382.053-.07.105-.123.158-.184h.061a10.817,10.817,0,0,1,9.5-2.4c2.674.754,3.594,4.629,2.086,6.794-1.85,2.63-5.979,2.63-8.766,1.841A7.886,7.886,0,0,1,397.324,134.741Z" transform="translate(-48.933 -15.61)"/><path class="n" d="M400.826,114.834c-.2-1.034-3.042-2.016-3.857-2.192a7.486,7.486,0,0,0-4.856.745,2.875,2.875,0,0,0-.982.754,1.21,1.21,0,0,0-.21,1.175,1.035,1.035,0,0,0,.456.491A15.06,15.06,0,0,1,400.826,114.834Z" transform="translate(-48.377 -13.884)"/><path class="n" d="M383.358,116.176a2.875,2.875,0,0,0-1.236-.061,7.556,7.556,0,0,0-1.622.4c0,.78,0,1.552,0,2.332a16.1,16.1,0,0,1,3.594-1.175,1.043,1.043,0,0,0,.1-.666A1.21,1.21,0,0,0,383.358,116.176Z" transform="translate(-47.1 -14.323)"/><path class="g" d="M393.411,77.959a40.234,40.234,0,0,0-3.506,3.322,20.248,20.248,0,0,0-4.383,6.4c-.877,2.253-1.394,5.575.114,7.644s4.085,2.63,6.294,3.094l9.3,2.069a72.513,72.513,0,0,0,10.1,1.753,36.642,36.642,0,0,0,19.031-3.752c4.5-2.235,10.309-6.277,10.914-11.694a12.649,12.649,0,0,0-3.033-9.266,21.153,21.153,0,0,0-8.091-5.733,34.24,34.24,0,0,0-21.591-1.613A38.264,38.264,0,0,0,393.411,77.959Z" transform="translate(-47.615 -8.532)"/><path class="o" d="M399.093,141.57a10.9,10.9,0,0,1-2.262.684,5.137,5.137,0,0,0-1.332.351,2.156,2.156,0,0,0-.482.333h0a1.9,1.9,0,0,0-.877,1.552l-.061.21a2.525,2.525,0,0,0-2.472,0c-.447.263-.386,1.4.053,1.674h.053a2.113,2.113,0,0,0,1.315-.1,4.488,4.488,0,0,0,1.131-.237,13.3,13.3,0,0,0,2.919-1.674,6.136,6.136,0,0,0,2.007-2.63h-.079C399.023,141.737,399.067,141.658,399.093,141.57Z" transform="translate(-48.432 -17.469)"/><path class="n" d="M391.47,146.646a12.631,12.631,0,0,0,6.943-4.006A7.284,7.284,0,0,1,391.47,146.646Z" transform="translate(-48.453 -17.601)"/><path class="o" d="M397.169,145.705a3.269,3.269,0,0,0,1.236-2.1,20.335,20.335,0,0,1-2.735,2.007c-.631.368-1.867.631-2.235,1.35-.438.877.587.544,1.166.359A6.915,6.915,0,0,0,397.169,145.705Z" transform="translate(-48.683 -17.72)"/><path class="n" d="M395.1,122.852a3.085,3.085,0,0,1,.631-1.692,2.7,2.7,0,0,1,1.587-1.008,2.314,2.314,0,0,1,1.858.386,3.594,3.594,0,0,1,1.07,1.464,6.717,6.717,0,0,0-1.306-1.1,2.174,2.174,0,0,0-1.516-.21,2.725,2.725,0,0,0-1.376.754A4.907,4.907,0,0,0,395.1,122.852Z" transform="translate(-48.901 -14.819)"/><path class="n" d="M382.965,126.589a1.876,1.876,0,0,1,2.56-.675,1.946,1.946,0,0,1,.877,1.14l.061.219a1.937,1.937,0,0,1-.193,1.42,1.876,1.876,0,0,1-2.56.675,1.946,1.946,0,0,1-.877-1.14l-.061-.219a1.937,1.937,0,0,1,.193-1.42Z" transform="translate(-47.373 -15.506)"/><path class="n" d="M382.24,127.146a2.9,2.9,0,0,1,.6-1.587,2.534,2.534,0,0,1,1.49-.947,2.174,2.174,0,0,1,1.753.359,3.375,3.375,0,0,1,1,1.376,6.314,6.314,0,0,0-1.227-1.034,2.043,2.043,0,0,0-1.42-.193,2.56,2.56,0,0,0-1.3.71A4.608,4.608,0,0,0,382.24,127.146Z" transform="translate(-47.314 -15.37)"/><path class="p" d="M396.779,185.2c-12.86,11.747-35.7,30.3-51.834,41.13-3.349,7.144-5.453,14.771-7.67,22.336-1.21,4.138-2.454,8.275-3.962,12.316-.877,2.4-1.92,4.751-2.893,7.127,5.549,1.946,7.96,0,11.825-.631,8.109-4.287,15.665-9.459,23.414-14.42,10.467-6.706,20.811-13.6,30.918-20.846C398.427,230.863,398.348,186.489,396.779,185.2Z" transform="translate(-40.92 -22.852)"/><path class="i" d="M493.8,268.219c-3.3-20.407.877-41.2,2.525-61.827.877-10.773.982-21.591,1.122-32.434l.184-14.9a4.926,4.926,0,0,0-.684-3.173,4.559,4.559,0,0,0-2.586-1.341,40.931,40.931,0,0,0-7.714-1.061,11.87,11.87,0,0,0-5.26-.71l-11.4.2c-9.362-1.034-18.514-4.821-27.876-3.8a28.157,28.157,0,0,0-19.645,11.8,19.672,19.672,0,0,0-2.253,4.813c-.833.964-1.648,1.885-2.454,2.753L400,187.571c.131,12.79,2.349,24.045,1.481,36.818,5.058,13.859,8.231,29.287,13.281,43.147a19.1,19.1,0,0,1,1.367,5.26,16.5,16.5,0,0,1-1.227,6.452,94.339,94.339,0,0,0-13.921,47.7c36.09,9.275,73.933-.228,111.049-3.506C514.538,303.774,505.123,284.568,493.8,268.219Z" transform="translate(-49.506 -18.385)"/><path class="q" d="M493.234,268.331c-3.3-20.407.877-41.2,2.525-61.827.877-10.773.982-21.591,1.122-32.434q.1-7.434.184-14.9a4.926,4.926,0,0,0-.684-3.173,4.558,4.558,0,0,0-2.586-1.341,40.933,40.933,0,0,0-7.714-1.061,11.869,11.869,0,0,0-5.26-.71l-11.4.2c-5.566-.614-11.063-2.2-16.568-3.173-.088.324-.175.649-.272.973-2.411,7.889-7.784,15.06-15.84,17.707-5.47,1.8-12.921,1.648-17.9-1.753-.552.631-1.1,1.254-1.648,1.832-5.856,6.259-12.588,11.308-19.171,16.8a6.137,6.137,0,0,0-1.56,1.674,6.241,6.241,0,0,0-.456,3.235q.342,10.23-.237,20.469c-.245,4.33-.622,8.7,0,12.991s2.279,8.6,5.514,11.5a17.085,17.085,0,0,1,3.042,2.893,10.921,10.921,0,0,1,1.306,3.506c2.253,8.819,5.523,17.331,8.635,25.869a19.088,19.088,0,0,1,1.367,5.26,16.5,16.5,0,0,1-1.227,6.452,94.341,94.341,0,0,0-13.991,47.749c36.09,9.275,73.933-.228,111.049-3.506C513.974,303.886,504.559,284.68,493.234,268.331Z" transform="translate(-48.942 -18.498)"/><path class="r" d="M493.935,268.742c-3.3-20.407.876-41.2,2.525-61.827.877-10.774.982-21.591,1.122-32.435q.1-7.434.184-14.9a4.927,4.927,0,0,0-.684-3.173,4.559,4.559,0,0,0-2.586-1.341A40.934,40.934,0,0,0,486.782,154a11.869,11.869,0,0,0-5.26-.71L471,153.477a17.251,17.251,0,0,1,.193,11.817c-1.508,4.383-4.059,8.433-4.681,13.1a46.573,46.573,0,0,0,.447,13.509c2.428,15.113,9.441,29.507,5.488,44.979-2.674,10.519-8.617,20.881-18.961,25.422s-21.109,1.508-31.321-1.99c-3.717-1.28-7.486-2.568-11.326-3.506l4.111,11.273a19.083,19.083,0,0,1,1.367,5.26,16.5,16.5,0,0,1-1.227,6.452,94.34,94.34,0,0,0-13.973,47.687c36.09,9.275,73.933-.228,111.049-3.506C514.676,304.3,505.261,285.091,493.935,268.742Z" transform="translate(-49.644 -18.909)"/><path class="p" d="M349.727,222.45c.535,1.753-11.782,43.883-11.782,43.883-1.56.245-5.005,2-6.583,1.893a6.846,6.846,0,0,1-5.181-1.692c-2.56-1.85-3.883-5.023-4.883-8.056-3.1-9.388-11.633-60.574-12.728-66.07,8.661-3.147,21.205-8.1,29.866-11.238C339,182.967,346.58,212.211,349.727,222.45Z" transform="translate(-38.224 -22.355)"/><path class="g" d="M480.361,153.2c-2.63-3.568-7.53-7.495-9.152-8.95a80.217,80.217,0,0,0-19.382-12.7c-7.2-3.384-15.139-6-20.478-11.9-2.384-2.63-4.094-6.776-1.929-9.581,1.49-1.937,4.979-2.691,7.574-1.753s2.691-5.724,3.945-8.188c1.631-3.208,2.893-6.864,2.034-10.362-1.113-4.541-5.68-7.618-10.318-8.223s-9.3.833-13.587,2.691a67.942,67.942,0,0,0-10.677,5.812c-.824.552-3.507,3.691-3.6,4.646-.193,2.4,2.858,4.225,4.576,5.751,3.682,3.261,7.89,6.61,8.915,11.72.824,4.243-.877,8.713.167,12.895,2,7.977,12.834,11.4,14.455,19.452,1.245,6.2-3.612,12-4.076,18.312-.351,4.742,2.191,9.73,6.513,11.711s10.142.342,12.334-3.875c1.753-3.3,1.1-7.276.316-10.9a59.291,59.291,0,0,0,5.54,10.738,96.365,96.365,0,0,1,22.792-9.459c1.981-.535,4.155-1.131,5.33-2.814C482.526,156.982,481.816,155.15,480.361,153.2Z" transform="translate(-50.096 -10.045)"/><path class="s" d="M487.629,280.259a31.558,31.558,0,0,1,13.316,19.2c.307,1.35.473,2.919-.412,3.98a3.314,3.314,0,0,1-3.506.807,9.055,9.055,0,0,1-3.165-2c-6.285-5.391-12.045-12.229-13.088-20.443C480.222,277.13,485.236,278.69,487.629,280.259Z" transform="translate(-59.467 -34.388)"/><path class="i" d="M352.417,150.357a1.841,1.841,0,0,0-.394-1.815c-.807-.6-1.876.3-2.4,1.148-1.455,2.358-2.358,5.084-4.181,7.171a35.512,35.512,0,0,1-4.69,3.918,9.128,9.128,0,0,0-3.506,4.874,2.972,2.972,0,0,0,.763,2.972,2.63,2.63,0,0,0,2.577.228,6.628,6.628,0,0,0,2.148-1.613,62.1,62.1,0,0,0,6-7.968,20.793,20.793,0,0,0,2.77-5.829A20.708,20.708,0,0,0,352.417,150.357Z" transform="translate(-41.747 -18.305)"/><path class="i" d="M323.679,175.687c-.622,2.98-1.525,5.943-2.279,8.766a49.469,49.469,0,0,0,14.99-5.514,1.98,1.98,0,0,0,.736-.6,2.025,2.025,0,0,0,.21-1.113c0-4.164-.377-6.268,2.209-9.5a15.61,15.61,0,0,0,2.148-5.067q1.3-4.646,2.139-9.406c.4-2.262,1.183-6.39-1.192-7.67-2.06-1.113-7.206-.175-9.529-.105-2.761.079-5.566-1.14-7.793,1.2a9.94,9.94,0,0,0-2.235,4.918,24.85,24.85,0,0,0,.587,12.334C324.819,167.666,324.494,171.68,323.679,175.687Z" transform="translate(-39.807 -17.897)"/><path class="t" d="M354.342,148.821a11.516,11.516,0,0,1-1.157-.061c-.614.105-1.236.167-1.858.228l-20.653,2.034-19.031,1.885c-.877.088-6.277.272-4.076,2.63.877.947,6.566-.5,7.889-.64a283.145,283.145,0,0,1,35.511-1.42,11.019,11.019,0,0,1,3.3.421,14.247,14.247,0,0,1,3.252,1.893c4.252,2.858,9.774,4.436,14.534,2.56a9.949,9.949,0,0,0,6.136-9.529Z" transform="translate(-38.036 -18.356)"/><path class="u" d="M366.156,148.826a3.615,3.615,0,0,0-.351.807c-.517,1.876,1.052,3.419,2.49,4.322a11.02,11.02,0,0,0,10.432.982A5.987,5.987,0,0,0,382.3,148.8Z" transform="translate(-45.274 -18.361)"/><path class="u" d="M364.286,159.085a26.167,26.167,0,0,1-5.672-4.181,9.292,9.292,0,0,0-6.82-2.744,44.962,44.962,0,0,0-6.759.877,45.212,45.212,0,0,1-6.206.543c-2.691.079-5.391.088-8.091.184-2.937.105-5.812.482-8.766.789-4.962.526-9.958,0-14.9.412a1.587,1.587,0,0,0,.517,1c.877.947,6.566-.5,7.89-.64a283.068,283.068,0,0,1,35.511-1.42,11.028,11.028,0,0,1,3.3.421,14.251,14.251,0,0,1,3.252,1.893,20.207,20.207,0,0,0,7.109,3.059Z" transform="translate(-38.039 -18.775)"/><path class="k" d="M329.814,154.473a30.365,30.365,0,0,0,4.926,7.889c1.192-1.218.877-3.217.447-4.865q-1.429-5.505-3.252-10.887l4.629,11.58c.377.938.877,2,1.867,2.218,1.166-1.753.693-4.067.167-6.136l-2.1-8.249a96.345,96.345,0,0,0,5.146,12.273c.289.57.745,1.218,1.368,1.131,1.552-4.05.316-8.582-.938-12.737l3.165,10.66c.324,1.1.991,2.428,2.121,2.305,1.587-2.9.929-6.461.237-9.687a14.692,14.692,0,0,0-1.946-5.426,5.006,5.006,0,0,0-4.962-2.3,14.7,14.7,0,0,1-2.069.587,6.7,6.7,0,0,1-2.788-.754,2.779,2.779,0,0,0-2.77.14c-.421.368-.649.956-1.157,1.2a2.279,2.279,0,0,1-1.368,0,5.566,5.566,0,0,0-4.383.675c-2.078,1.6-.657,2.91.3,4.278A30.684,30.684,0,0,1,329.814,154.473Z" transform="translate(-40.261 -17.494)"/><path class="n" d="M498.176,259.757l-.956-.123c2.349-18.917,3.8-38.176,4.331-57.234h.964C501.989,221.519,500.534,240.8,498.176,259.757Z" transform="translate(-61.502 -24.974)"/><path class="n" d="M521.172,339.692l-1.42-3.568.272-.105a65.351,65.351,0,0,0-7.548-26.789,17.839,17.839,0,0,0-3.366-4.76l.657-.71a18.67,18.67,0,0,1,3.559,5.014,66.3,66.3,0,0,1,7.714,28Z" transform="translate(-62.969 -37.482)"/><path class="n" d="M308.605,193.088l-.175-.938c10.589-1.753,20.258-6.54,29.612-11.15l.473.877C329.092,186.488,319.344,191.291,308.605,193.088Z" transform="translate(-38.207 -22.334)"/><rect class="i" width="41.944" height="52.705" transform="translate(180.578 159.812) rotate(-164.291)"/><path class="v" d="M179.525,123.5c3.182,9.52,8.31,18.961,18.251,22.538a22.74,22.74,0,0,0,11.773,1.043l6.96-24.764L177,111.22A45.382,45.382,0,0,0,179.525,123.5Z" transform="translate(-21.989 -13.724)"/><path class="w" d="M154.73,198.73h10.028l6.39,19.434C166.073,211.3,161.1,204.226,154.73,198.73Z" transform="translate(-19.241 -24.522)"/><path class="x" d="M238.97,85.018a66.113,66.113,0,0,1-3.121,9.467,10.432,10.432,0,0,1-2.244,3.7q-.359-5.943-.386-11.9a19.469,19.469,0,0,1,.132-2.858,3.787,3.787,0,0,1,.535-1.6,3.313,3.313,0,0,1,1.552-1.148c.877-.342,2.972-.877,3.743-.079S239.224,83.993,238.97,85.018Z" transform="translate(-28.925 -9.893)"/><path class="k" d="M167.47,92.573c-.473-3.91-.64-6.4.544-9.713,2.209-6.136,7.889-10.405,13.842-13.149a32.3,32.3,0,0,1,8.486-2.8,35.424,35.424,0,0,1,5.382-.377,50.773,50.773,0,0,1,19.943,3.506c2.753,1.148,6.312,2.674,8.047,5.146,2.227,3.156,3.024,7.065,3.252,10.852s-1.043,7.013-1.6,10.695c-.438,2.928-.938,15.288-1.49,18.47a34.724,34.724,0,0,1-1.85,7.179c-1.858,4.558-5.733,8.477-10.519,9.485a17.235,17.235,0,0,1-5.68.105c-10.44-1.315-18.707-8.863-25.913-16.533-4.62-4.918-8.845-10.7-11.194-17.032A30.171,30.171,0,0,1,167.47,92.573Z" transform="translate(-20.769 -8.208)"/><path class="y" d="M219.45,118.944a1.07,1.07,0,0,0,1.122-.5,1.648,1.648,0,0,0,.175-.824,41.77,41.77,0,0,0-1.473-9.792,38.8,38.8,0,0,1-1.438-10.169.4.4,0,0,0-.377-.43.412.412,0,0,0-.412.4,39.854,39.854,0,0,0,1.455,10.405,41.122,41.122,0,0,1,1.455,9.59.92.92,0,0,1-.053.386c-.114.193-.561.105-.92-.088a15.779,15.779,0,0,1-4.839-3.954.377.377,0,0,0-.552,0,.438.438,0,0,0,0,.587,16.56,16.56,0,0,0,5.084,4.146,2.383,2.383,0,0,0,.771.237Z" transform="translate(-26.491 -11.997)"/><path class="y" d="M217.078,127.419a.438.438,0,0,0,0-.877,22.689,22.689,0,0,1-4.041-.193,7.188,7.188,0,0,1-3.506-1.525,11.192,11.192,0,0,1-1.28-1.376.439.439,0,1,0-.675.561,11.848,11.848,0,0,0,1.385,1.49,8.056,8.056,0,0,0,3.953,1.753,23.406,23.406,0,0,0,4.2.21Z" transform="translate(-25.75 -15.213)"/><path class="y" d="M232.915,95.233a12.115,12.115,0,0,0-6.25-4.742,2.253,2.253,0,0,0-1.359.088,2.919,2.919,0,0,0-1.315,2.279,24.8,24.8,0,0,0-.421,2.533c4.12-.666,7.407,2.06,8.564,5.856a1.753,1.753,0,0,0,.877-.158,2.91,2.91,0,0,0,1.087-1.227l.105-.184A9.24,9.24,0,0,0,232.915,95.233Z" transform="translate(-27.736 -11.158)"/><path class="y" d="M195.521,100.727a.763.763,0,0,0,.359.14A9.265,9.265,0,0,1,200.474,97a11.606,11.606,0,0,1,8.231.307c-.324-1.964-.57-5.049-2.253-6.18s-5.128-.412-6.776.508a9.1,9.1,0,0,0-3.384,3.875,8.012,8.012,0,0,0-1.113,4.383A1.14,1.14,0,0,0,195.521,100.727Z" transform="translate(-24.232 -11.173)"/><path class="y" d="M226.048,106.4a2.5,2.5,0,0,1,1.692-.657,2.381,2.381,0,0,1,1.6,4.094,2.507,2.507,0,0,1-1.692.657,2.381,2.381,0,0,1-1.6-4.094Z" transform="translate(-27.952 -13.047)"/><path class="y" d="M200.922,105.86a2.533,2.533,0,0,1,1.753-.991,2.928,2.928,0,0,1,1.9.535,2.674,2.674,0,0,1,.991,1.753,2.63,2.63,0,0,1-.535,1.9,2.533,2.533,0,0,1-1.753.991,2.928,2.928,0,0,1-1.9-.535,2.674,2.674,0,0,1-.991-1.753A2.63,2.63,0,0,1,200.922,105.86Z" transform="translate(-24.873 -12.939)"/><path class="z" d="M219.667,52.189a31.749,31.749,0,0,1,4.725.877l-1.525,1.262a18.689,18.689,0,0,1,16.656,11.15c.956,2.27,1.411,4.979.219,7.136a8.632,8.632,0,0,1-4.576,3.506,26.07,26.07,0,0,1-12.842,1.806,4.383,4.383,0,0,1,2.183,1.368c-3.506,2.358-7.793,3.27-12,3.62a53.017,53.017,0,0,1-23.668-3.506,9.293,9.293,0,0,0-2.884-.815c-3.822-.193-3.506,6.846-3.962,9.5l-1.2,6.864c-.158.877-1.753,6.312-1.262,6.82-3.2-3.27-10.686-7.136-12.746-6.426-.412.14-1.367-7.574-1.543-10.212a27.639,27.639,0,0,1,.614-9.362,10.624,10.624,0,0,1,5.111-6.82c1.052-.552,7.179-2.27,8-.973l-4.164-6.5c-1.026-1.6-2.1-3.4-1.815-5.26,3.953.877,6.478,4.62,8.6,8.065a44.038,44.038,0,0,1,2.165-11.843c1.148.342,1.552,1.753,1.657,2.945a19.593,19.593,0,0,1-1.183,8.635c3.91-4.444,10.887-6.557,16.252-8.766a40.122,40.122,0,0,1,19.189-3.068Z" transform="translate(-20.519 -6.421)"/><path class="aa" d="M253.84,210.552c2.63,18.409,4.5,36.87,5.935,55.384q31.137-7.451,62.888-11.878l4.26,37.878q-17.6,5.715-35.31,11.124c-14.517,4.436-29.437,8.766-44.584,7.889a13.9,13.9,0,0,1-6.671-1.622c-2.139-1.324-3.506-3.577-4.672-5.794-11.15-21.039-12.737-45.75-13.307-69.576-.368-15.455-.377-31.12,3.506-46.075,1.026-3.927,2.367-7.889,4.927-11.019C246.1,158.227,252.595,201.786,253.84,210.552Z" transform="translate(-27.57 -21.257)"/><path class="ab" d="M232.864,180.716c-2.367-6.61-6.829-12.527-13.149-15.779-3.506-1.753-7.425-3.086-11.045-4.664-1.473-.64-9.792-5.409-10.958-4.76-12.921,7.153-30.8,3.506-39.93-8.074-17.83,12.045-40.052,14.026-58.023,25.877,10.116,7.355,3.673,25.544,13.149,33.662,6.014,5.119,7.74,116.826,7.889,127.24l109.786-.614c-2.113-18.689-6.136-29.1-5.26-38.772.684-8.021,4.436-60.766,5.7-68.665,1.289-8.091,4.059-15.358,4.383-23.747C235.687,195.092,235.336,187.615,232.864,180.716Z" transform="translate(-12.459 -18.193)"/><path class="aa" d="M225.386,298.683c.105-1.227.281-3.506.508-6.487a21.582,21.582,0,0,1-11.9-5.523c-5.558-4.962-9.792-11.186-15.586-15.928-6.513-5.339-13.894-8.17-22.143-9.467-7.7-1.21-15.893-2.244-22.02-7.539-4.883-4.216-7.74-10.195-9.546-16.279-3.936-13.263-3.673-27.412-10.765-39.667s-19.224-17.085-33.679-19.154c8.512,7.837,3.612,24.44,12.746,32.224,6.014,5.119,7.749,116.826,7.889,127.24l109.76-.649C228.559,318.766,224.562,308.352,225.386,298.683Z" transform="translate(-12.519 -22.043)"/><path class="ac" d="M193.394,162.4a26.78,26.78,0,0,0,3.428-.21,17.777,17.777,0,0,0,10.651-5l-.754-.719a16.734,16.734,0,0,1-10.028,4.681,37.888,37.888,0,0,1-11.4-.657c-10.563-1.929-17.611-5.645-21.547-11.4l-.877.587c4.094,5.961,11.4,9.827,22.213,11.8A46.594,46.594,0,0,0,193.394,162.4Z" transform="translate(-20.246 -18.398)"/><path class="k" d="M169.718,101.841a11.115,11.115,0,0,0-6.522.14,5.549,5.549,0,0,0-3.726,3.9c-.324,1.8.6,3.585,1.753,5.041a18.2,18.2,0,0,0,5.558,4.786c1.858,1.034,4.216,1.753,6.049.64a7.443,7.443,0,0,0,2.139-2.262c1.613-2.27,3.094-4.655,1.613-7.311A10.7,10.7,0,0,0,169.718,101.841Z" transform="translate(-19.818 -12.514)"/><path class="v" d="M171.882,107.937A11.116,11.116,0,0,0,168.139,106a6.96,6.96,0,0,0-4.637-.193,2.139,2.139,0,0,0-1,.71,2.63,2.63,0,0,0,.114,2.525,9.345,9.345,0,0,0,5.514,5.339,4.971,4.971,0,0,0,3.7-.21C174.757,112.644,174,109.7,171.882,107.937Z" transform="translate(-20.167 -13.018)"/><path class="y" d="M166.26,112.421a26.152,26.152,0,0,1,4.5-2.349l-.193-.482a26.71,26.71,0,0,0-4.585,2.393Z" transform="translate(-20.63 -13.523)"/><path class="y" d="M173.985,112.369l.342-.394a23.782,23.782,0,0,0-11.08-5.365l-.1.508A23.256,23.256,0,0,1,173.985,112.369Z" transform="translate(-20.28 -13.155)"/><path class="ab" d="M181.536,300.317c-4.9-7.837-8.722-16.55-10.011-25.7-20.3.044-67.814-7.346-72.32-5.067-5.084,2.577-30.769,44.085-30.515,44.3,4.111,3.506,107.648-2.384,120.621-2.674a110.824,110.824,0,0,1-7.775-10.852Z" transform="translate(-8.625 -33.206)"/><path class="ac" d="M94.376,282.009l-.666-.7a44.708,44.708,0,0,1,19.645-10.958l.245.938A43.734,43.734,0,0,0,94.376,282.009Z" transform="translate(-11.712 -33.359)"/><path class="ac" d="M97.253,262.971l-.473-.877c4.681-2.63,10.353-2.218,15.349-1.841a1.621,1.621,0,0,0,.877-.088,1.6,1.6,0,0,0,.491-.675l15.314-29.927c3.086-6.031,6.268-12.272,8.863-18.654.736-1.806,1.42-3.726.964-5.523l.938-.237c.517,2.078-.21,4.164-1.008,6.136-2.63,6.417-5.812,12.676-8.9,18.724l-15.306,29.962a1.946,1.946,0,0,1-2.314,1.28C107.194,260.885,101.68,260.473,97.253,262.971Z" transform="translate(-12.091 -25.314)"/><path class="ad" d="M188.917,305.156c-2.893,1.753-6.136,4.085-6.329,7.477-.167,2.516,1.4,4.778,2.9,6.811s3.506,4.383,6.136,4.453a6.136,6.136,0,0,0,4.813-2.814,35.357,35.357,0,0,0,2.682-5.119c2.954-5.856,8.091-10.318,13.517-14.026s11.273-6.741,16.507-10.7a2.051,2.051,0,0,0,.693-3.191c-.657-1.289-1.832-4.383-3.094-5.1-1.6-.877-2.893.587-4.6,1.639l-11.229,6.951Z" transform="translate(-22.677 -34.88)"/><path class="ae" d="M230.069,288.129c-.631-1.227-1.753-4.076-2.91-4.979.561,1.061,1.043,2.209,1.385,2.884a2.051,2.051,0,0,1-.693,3.191c-5.26,3.962-11.072,7.013-16.507,10.7s-10.563,8.144-13.517,14.026a35.333,35.333,0,0,1-2.682,5.119,6.136,6.136,0,0,1-4.813,2.814c-2.341,0-4.129-1.885-5.593-3.778.324.482.675.964,1.017,1.42,1.552,2.1,3.506,4.383,6.136,4.453a6.136,6.136,0,0,0,4.813-2.814,35.33,35.33,0,0,0,2.682-5.119c2.954-5.856,8.091-10.318,13.517-14.026s11.273-6.741,16.507-10.7a2.051,2.051,0,0,0,.693-3.191Z" transform="translate(-22.944 -34.938)"/><path class="af" d="M293.973,236.81c-2.7,5.978-38.457,45.926-53.955,54.709-.763.43-14.21-19.057-16.287-24.4C223.73,267.123,276.449,242.359,293.973,236.81Z" transform="translate(-27.755 -29.22)"/><path class="k" d="M202.81,285.265c5.4.938,10.984,2.218,15.253,5.654,2.761,2.227,4.786,5.26,6.759,8.179,1.14,1.709,2.323,3.612,2.113,5.654s-2.63,3.866-4.383,2.709c.105,2.831-3.813,4.821-6.04,3.077a3.84,3.84,0,0,1-5.891,3.647,3.734,3.734,0,0,1,.3,2.06,1.289,1.289,0,0,1-1.56,1.017,1.885,1.885,0,0,1-.745-.693,78.075,78.075,0,0,0-10.739-12.01,46.546,46.546,0,0,0-5.2-3.98,4.716,4.716,0,0,1-1.411-1.254,4.647,4.647,0,0,1-.5-1.236q-1.2-4.094-2.2-8.249a74.857,74.857,0,0,0-1.955-7.74c2.4.412,4.8.947,7.2,1.324C196.831,283.906,199.794,284.739,202.81,285.265Z" transform="translate(-23.175 -34.809)"/><path class="n" d="M191.831,303c.044-.473-5.505-21.915-5.505-21.915a17.533,17.533,0,0,1-.692-5.19l-.964-.07a18.251,18.251,0,0,0,.719,5.488l5.26,22.2A4.287,4.287,0,0,1,191.831,303Z" transform="translate(-22.935 -34.035)"/><path class="n" d="M246.74,251.328c.307.088.561-.079.877,0,2.788-18.628,6.5-42.025,2-61.608l-.938.219C253.1,209.312,249.51,232.805,246.74,251.328Z" transform="translate(-30.595 -23.41)"/><path class="n" d="M339.7,292.968c-1.622-8.95-3.287-18.2-3.726-27.438l-.955.175c.447,9.266,2.1,18.514,3.506,27.736l1.289,10.519c.237-.289.806-.132,1.113-.289Z" transform="translate(-41.488 -32.764)"/><path class="ag" d="M46.918,0H407.987a51.356,51.356,0,0,1,51.356,51.356s-.3,46.653-29.876,61.732c-24.177,12.328-133.377.331-195.022,0-50.658-.279-64.354,4.445-113.526,0-58.4-6.489-72.307,7.49-95.216-15.024S0,46.918,0,46.918A46.918,46.918,0,0,1,46.918,0Z" transform="translate(43.453 298.415)"/><path class="t" d="M367.75,312.23H472.768v26.412A24.764,24.764,0,0,1,448,363.406H392.514a24.764,24.764,0,0,1-24.764-24.764Z" transform="translate(-45.526 -38.527)"/><path class="u" d="M455.193,312.23c.307,2.288.526,4.593.64,6.9.272,5.54,0,11.317-1.806,16.612a18.681,18.681,0,0,1-8.442,10.291c-4.383,2.577-9.555,3.734-14.6,4.322a106.5,106.5,0,0,1-15.376.438c-4.532-.123-9.064,0-13.6-.254-8.722-.429-19.285-1.928-24.457-9.862-3.086-4.707-3.962-10.405-4.138-15.928-.14-4.173.123-8.337.307-12.509h-5.97v37.484a13.64,13.64,0,0,0,13.64,13.64h77.738a13.64,13.64,0,0,0,13.631-13.64V312.23Z" transform="translate(-45.528 -38.527)"/><ellipse class="ah" cx="52.509" cy="7.653" rx="52.509" ry="7.653" transform="translate(322.224 266.051)"/><path class="u" d="M420.158,319.431c-21.4,0-53.228-2.235-53.228-8.38s31.83-8.38,53.228-8.38,53.228,2.235,53.228,8.38S441.556,319.431,420.158,319.431Zm0-15.314a270.464,270.464,0,0,0-37.019,2.235c-11.65,1.7-14.762,3.752-14.762,4.7s3.112,3,14.762,4.7a270.48,270.48,0,0,0,37.019,2.235,270.465,270.465,0,0,0,37.019-2.235c11.65-1.7,14.762-3.752,14.762-4.7s-3.112-3-14.762-4.7a270.473,270.473,0,0,0-37.019-2.235Z" transform="translate(-45.425 -37.347)"/><path class="t" d="M359.591,314.309a1.683,1.683,0,0,0-2.341,1.192c-.14.666-.281,1.3-.4,1.753a3.033,3.033,0,0,0-.132,1.429,2.937,2.937,0,0,0,1.631,1.666,35.591,35.591,0,0,0,10.888,3.918,1.753,1.753,0,0,0,.991,0c.421-.175,1.569-5.715,1.753-6.136C371.977,318.114,363.378,316.027,359.591,314.309Z" transform="translate(-44.161 -38.765)"/><path class="t" d="M494.045,315.309a1.683,1.683,0,0,1,2.341,1.192c.14.666.28,1.3.4,1.753a3.033,3.033,0,0,1,.131,1.429,2.936,2.936,0,0,1-1.63,1.665,35.591,35.591,0,0,1-10.9,3.9,1.754,1.754,0,0,1-.991,0c-.421-.175-1.569-5.716-1.753-6.136C481.641,319.122,490.232,317.036,494.045,315.309Z" transform="translate(-59.581 -38.888)"/><path class="ai" d="M482.42,456.462h2.13a.21.21,0,0,0,.193-.132C483.963,456.365,483.191,456.418,482.42,456.462Z" transform="translate(-59.676 -56.307)"/><path class="aj" d="M209.19,437.008a72.787,72.787,0,0,0,.745,7.53c0,.131.079.263.219.254,75.187-1.9,163.049,1.534,240.682,0a.219.219,0,0,0,.21-.219v-6.136a.218.218,0,0,0,0-.044c-4.7-22.108-10.581-46.723-15.279-68.849a.21.21,0,0,0-.21-.166q-56.91.526-113.828-.272c-18.286-.254-90.159-2.13-94.051-2.235a.219.219,0,0,0-.21.158C225.679,373.19,209.19,437.008,209.19,437.008Z" transform="translate(-25.961 -45.269)"/><path class="ai" d="M434.337,385.829c-9.318-.289-18.645-1.289-27.981-.964-10.405.359-20.32,3.9-30.681,4.944-5.961.6-11.974-.114-17.953.167-4.252.2-13.07.368-15.192,5.155,3.954,2.27,9.336,1.92,13.7,1.937,5.382,0,10.774.324,16.156.473,21.039.587,42.165,1.262,63.186.877a124.789,124.789,0,0,1,18.987.6c1.192.158,2.463.351,3.761.614-1.14-5.049-2.27-10.072-3.366-15.025A97.031,97.031,0,0,1,434.337,385.829Z" transform="translate(-42.414 -47.458)"/><path class="ai" d="M406.206,418.041c-5.26.088-10.458-.272-15.7-.228-6.864.044-13.719.316-20.574.342-13.447.044-26.561-1.841-39.859-3.6-12.7-1.683-25.422-1.9-38.194-1.9-11.7,0-23.888.508-34.766,5.26a.954.954,0,0,1-.412.088c.99,4.164,13.859,5.005,16.27,5.26,16.235,1.543,32.434.132,48.652-.105,20.635-.307,41.3,1.1,61.932,1.271,10.239.079,20.372-.675,30.567-1.464,3.734-.289,7.442-.491,11.194-.552,2.849,0,6.732.079,9.187-1.753-3.506-2.27-8.284-2.551-12.272-2.744C416.883,417.629,411.535,417.945,406.206,418.041Z" transform="translate(-31.824 -50.918)"/><path class="ai" d="M284.2,373.135q16.279,1.639,32.61,2.165c12.272.394,24.747,1.394,37.028.736,12.948-.693,25.6-3.252,38.141-6.338q-32.075,0-64.142-.473c-11.7-.167-45.329-.991-69.059-1.6C266.564,371.347,275.839,372.294,284.2,373.135Z" transform="translate(-32.08 -45.362)"/><path class="ai" d="M421.745,371.721c-.947.473-1.8.763-1.166,1.937a3.085,3.085,0,0,0,1.885,1.166,18.312,18.312,0,0,0,4.716.561c3.147.088,6.3-.07,9.45-.07a216.132,216.132,0,0,0,25.018-1.1l1.061-.132c-.3-1.394-.6-2.8-.877-4.173a.21.21,0,0,0-.21-.167q-17.892.166-35.792.184C424.428,370.485,423.078,371.081,421.745,371.721Z" transform="translate(-52.018 -45.623)"/><path class="ai" d="M438.726,431.63c-3.2.4-7.214.877-9.906,2.814-3.761,2.744,1.753,5.68,4.252,6.347,4.146,1.122,8.591,1.148,12.86,1.14,10.379,0,20.776.561,31.155.395-1.043-4.848-2.139-9.8-3.261-14.815a156.247,156.247,0,0,1-21.915,2.9C447.527,430.78,443.109,431.069,438.726,431.63Z" transform="translate(-52.905 -52.751)"/><path class="ai" d="M232.963,433.6a16.658,16.658,0,0,0,7.206-2.121c2-1.28,4.2-4.8,2.551-7.153-1.227-1.753-4.383-1.753-6.294-1.85-6.943-.491-14.026-.973-21.039-1.823l-4,15.428a93.718,93.718,0,0,0,13.57-1.455C227.66,434.22,230.333,433.9,232.963,433.6Z" transform="translate(-26.233 -51.905)"/><path class="ai" d="M243.143,404.564c5.023-.877,9.932-2.235,14.9-3.243a85.455,85.455,0,0,1,15.472-1.543c14.955-.281,30.033,1.885,44.961.289a20.625,20.625,0,0,0,5.917-1.175c.728-.316.815-.21.57-.631-.465-.789-2.1-1.28-2.884-1.613a96.572,96.572,0,0,0-24.9-6.391c-17.234-2.358-34.845-1.657-52.149-.587-7.276.447-14.631.973-21.977,1.148-1.306,5-2.718,10.432-4.111,15.779,2.805-.1,5.61-.272,8.407-.491A157.908,157.908,0,0,0,243.143,404.564Z" transform="translate(-27.164 -47.96)"/><path class="ai" d="M401.334,445.783c-15.691-4.532-31.33-8.81-47.582-10.782-16.813-2.034-33.679-1.981-50.58-2.209a208.8,208.8,0,0,0-25.869.807c-8.582.956-16.708,3.436-25.115,5.005-13.535,2.533-27.263,3.743-40.946,5.172a.964.964,0,0,1-1.061.719,2.848,2.848,0,0,1-.666-.053l-.324,1.262a72.786,72.786,0,0,0,.745,7.53c0,.131.079.263.219.254,72.592-1.841,157.036,1.306,232.608.149C428.71,453.392,414.825,449.675,401.334,445.783Z" transform="translate(-25.961 -53.396)"/><path class="ak" d="M450.52,446.243c-77.518,1.508-165.285-1.92-240.366,0-.14,0-.175-.123-.219-.254a6.576,6.576,0,0,1-.184-.929l-.561,2.192a72.779,72.779,0,0,0,.745,7.53c0,.132.079.263.219.254,75.187-1.9,163.049,1.534,240.682,0a.219.219,0,0,0,.21-.219V448.68a.211.211,0,0,0,0-.044Z" transform="translate(-25.961 -54.917)"/><path class="ai" d="M231.029,380.313c6.715-.219,13.43-.149,20.162-.1,6.969.061,13.947.088,20.89.71,5.865.526,11.931,1.3,17.778.368-5.926-1.534-12.15-1.622-18.207-2.4-7.6-.973-15.165-2.568-22.713-3.883-7.714-1.341-15.551-2.349-23.318-3.366-.789-.105-1.587-.184-2.384-.263-.543,2.016-1.367,5.128-2.376,8.933A96.962,96.962,0,0,0,231.029,380.313Z" transform="translate(-27.401 -45.825)"/><path class="ai" d="M226.817,369.5c7.889,1.043,15.91,2.1,23.782,3.506,1.894.333,3.787.684,5.689,1.034a41.647,41.647,0,0,1-11.054-4.567l-20.811-.535a.219.219,0,0,0-.21.158l-.044.158C225.047,369.291,225.932,369.387,226.817,369.5Z" transform="translate(-27.81 -45.524)"/><path class="al" d="M174.47,413.632c.771.123,1.56.2,2.341.272a78.306,78.306,0,0,0,16.708.132c5.593-.728,10.852-2.972,16.48-.877,4.208,1.569,7.32,5.207,11.4,7.144,5.347,2.56,11.8,1.911,17.155,4.453,2.481-6.136,7.3-11.054,12.448-15.235s10.738-7.828,15.516-12.422a105.8,105.8,0,0,0,10.73-12.737c2.007-2.63,4.129-5.821,3.3-9.047a7.373,7.373,0,0,0-2.455-3.655c-2.761-2.358-6.539-3.173-10.169-3.226s-7.232.57-10.861.7c-7.889.3-15.534-1.63-23.274-2.63a72.928,72.928,0,0,0-11.589-.377c-3.506.114-4.181,1.289-6.338,4.041a17.681,17.681,0,0,1-5.023,3.971c-12,7.206-24.922,12.755-37.957,17.865-5.409,2.121-10.914,4.2-15.595,7.635a88.62,88.62,0,0,0,9.906,10.309,16.776,16.776,0,0,0,3.322,2.446A12.992,12.992,0,0,0,174.47,413.632Z" transform="translate(-19.556 -45.167)"/><path class="am" d="M228.387,411.784a90.682,90.682,0,0,0-10.6-5.584c-4.725-1.9-9.476-1.753-14.429-1.113-11.834,1.569-27.008,3.84-35.5-6.776-1.622.684-3.226,1.411-4.778,2.218a18.3,18.3,0,0,0,13.324,9.231c11.79,2.051,23.59-3.419,35.257-.552,11.028,2.709,19.934,10.388,30.524,14.122a36.361,36.361,0,0,1,2.674-3.384C239.275,417.446,233.717,414.808,228.387,411.784Z" transform="translate(-20.272 -49.148)"/><path class="am" d="M238.4,406.692c-5.882-3.506-12.167-6.61-18.987-7.627-5.146-.771-10.23.132-15.332.78-8.617,1.1-20.925,2.744-26.763-5.356l-2.63,1.052L171.8,396.69c9.345,10.765,25.9,4.778,37.913,4.506,8.258-.193,14.771,4,21.722,7.889,5.4,3.016,11,5.645,16.656,8.144.877-.877,1.876-1.753,2.849-2.63C246.75,411.952,242.648,409.2,238.4,406.692Z" transform="translate(-21.348 -48.677)"/><path class="am" d="M242.24,400.262c-5.917-3.708-11.624-8.451-18.672-9.757-11.028-2.06-25.238,7.407-34.863-.815q-3.655,1.569-7.346,3.059c3.322,3.875,8.871,4.5,13.78,4.383,5.154-.088,10.256-.956,15.367-1.56a38.456,38.456,0,0,1,15.963,1.192c10.3,3.112,18.952,9.643,28.052,15.192,1.227-.982,2.481-1.946,3.743-2.893A165.567,165.567,0,0,1,242.24,400.262Z" transform="translate(-22.527 -48.085)"/><path class="am" d="M254.078,396.969c-5.54-3.34-10.589-7.434-16.244-10.589-6.136-3.41-12.781-5.3-19.759-3.84-3.41.719-6.645,2.069-10.116,2.5a35.356,35.356,0,0,1-8.95-.263q-2.788,1.324-5.619,2.568c4.6,2.691,10.519,1.753,15.691.728,6.215-1.192,12.273-2.709,18.549-.938,6.7,1.885,12.124,6.294,17.944,9.888a168.829,168.829,0,0,0,16.8,9.117c1.385-1.043,2.753-2.1,4.094-3.182A78.385,78.385,0,0,1,254.078,396.969Z" transform="translate(-24.012 -47.141)"/><path class="am" d="M291.66,372.1a34.47,34.47,0,0,1-4.778-.105,28.789,28.789,0,0,1-11.037-2.884c-1.753.167-3.506.342-5.26.412-1.166.044-2.332,0-3.506,0a64.377,64.377,0,0,0,13.631,5.312,58.293,58.293,0,0,0,9.388,1.753,20.9,20.9,0,0,0,4.094.044,5.767,5.767,0,0,0-.149-.877A7.328,7.328,0,0,0,291.66,372.1Z" transform="translate(-33.104 -45.545)"/><path class="am" d="M278.412,377.681a77.6,77.6,0,0,1-21.486-9.178c-4.173-.579-8.319-1.385-12.492-1.9l-.6-.07c6.469,1.446,11.931,4.611,17.383,8.24a59.182,59.182,0,0,0,16.138,7.25c3.086.929,7.285,2.235,10.94,1.876a18.409,18.409,0,0,0,2.63-4.479C286.644,379.758,281.77,378.5,278.412,377.681Z" transform="translate(-30.236 -45.227)"/><path class="am" d="M277.4,386.148a66.162,66.162,0,0,1-15.051-5.207c-6.312-3.287-11.6-7.977-18.453-10.256s-14.157-2.516-20.749.447a14.523,14.523,0,0,1-2.56,2.156c3.875-.666,7.7-1.709,11.659-1.753,6.022-.061,11.554,2.805,16.656,5.768,9.7,5.645,19.478,13.824,31.111,13.877,1.1-1.35,2.183-2.735,3.243-4.12A34.08,34.08,0,0,1,277.4,386.148Z" transform="translate(-27.368 -45.524)"/><path class="am" d="M248.6,382.467c-5.26-3.261-11.492-7.25-17.918-7.2-6.014.053-11.711,2.428-17.751,2.279q-3.568,2.008-7.223,3.857a24.377,24.377,0,0,0,5.093-.394c3.761-.719,7.293-2.244,11.124-2.674,6.285-.7,12.518,1.218,18.006,4.164,5.8,3.121,10.931,7.311,16.55,10.738a79.594,79.594,0,0,0,14.1,6.715c.631-.561,1.262-1.131,1.867-1.753,1.14-1.1,2.227-2.244,3.278-3.428C265.766,393.872,257.035,387.674,248.6,382.467Z" transform="translate(-25.532 -46.305)"/><path class="am" d="M224.584,418.839c-5.943-3.322-12.132-6.461-19.04-7.013-6.215-.5-12.562,1.219-18.751,1.683-5.645.421-11.554.342-16.883-1.806a20.241,20.241,0,0,1-10.134-9.213c-.877.526-1.7,1.078-2.516,1.674a88.679,88.679,0,0,0,9.906,10.309,16.78,16.78,0,0,0,3.322,2.446,13,13,0,0,0,3.98,1.21c.771.123,1.56.2,2.341.272a78.309,78.309,0,0,0,16.708.131c5.593-.728,10.852-2.972,16.48-.877,4.208,1.569,7.32,5.207,11.4,7.144,5.347,2.56,11.8,1.911,17.155,4.453a26.279,26.279,0,0,1,1.359-2.84A106.317,106.317,0,0,1,224.584,418.839Z" transform="translate(-19.554 -49.664)"/><path class="an" d="M305.393,380.67c-1.026,1.9-1.753,4.479-.3,6.04a4.5,4.5,0,0,0,2.709,1.148c4.8.64,9.441-1.858,13.412-4.637,4.62-3.226,9.143-7.4,10.177-12.939.657-3.506-.491-6.364-4.067-6.767-2.831-.316-5.4,1.5-7.784,2.867A36.6,36.6,0,0,0,305.393,380.67Z" transform="translate(-37.694 -44.85)"/><path class="ao" d="M312.076,389.9a23.928,23.928,0,0,1-4.69-.14l-.6-.088A10.519,10.519,0,0,0,312.076,389.9Z" transform="translate(-38.004 -48.082)"/><path class="ao" d="M335.259,375.543a49.254,49.254,0,0,0-4.383-9.686c-.4-.675-.877-1.4-1.683-1.517a6.215,6.215,0,0,1,1.3,4.97,11.974,11.974,0,0,1-2.007,4.26,38.669,38.669,0,0,1-2.744,3.8,20.6,20.6,0,0,1-8.766,8.389c-3.357,1.639-9.757,3.147-12.763,0a7.543,7.543,0,0,0,.877,1.42,29.139,29.139,0,0,0,4.76,5.435,11.756,11.756,0,0,0,3.98,2.034c1.1.351,2.218.64,3.366,1.017a15.156,15.156,0,0,0,9.643-.359c2.831-1.061,5.891-3.033,8.6-1.683a10.284,10.284,0,0,0,0-3.086c-.105-2.542.666-5.067.964-7.565A17.453,17.453,0,0,0,335.259,375.543Z" transform="translate(-37.686 -44.957)"/><path class="ap" d="M320.778,383.233a1.271,1.271,0,0,0,.517.877,1.166,1.166,0,0,0,1.157-.281,12.43,12.43,0,0,0,2.98-3.761,1.56,1.56,0,0,0,.3-1.429,1.472,1.472,0,0,0-.771-.6,16.09,16.09,0,0,0-2.972-.991c-.675-.158-2.191-.64-2.788-.272a10.338,10.338,0,0,1,.771,3.1Q320.366,381.559,320.778,383.233Z" transform="translate(-39.536 -46.475)"/><path class="ap" d="M310.965,385.833a1.3,1.3,0,0,0-.245.692c0,.631.877.877,1.473.877a14.026,14.026,0,0,0,3.656-.456,2.629,2.629,0,0,0,1.753-1.052,2.751,2.751,0,0,0,.254-1.21q.114-2.314,0-4.637c-.061-1.674-.228-2.735-1.674-1.175A41.2,41.2,0,0,0,310.965,385.833Z" transform="translate(-38.489 -46.656)"/><path class="ap" d="M310.044,378.951a4.865,4.865,0,0,0-2.244,1.473,5.262,5.262,0,0,0-.675,1.394,9.01,9.01,0,0,0-.675,3.2,1.086,1.086,0,0,0,.105.517.824.824,0,0,0,.955.3,2.393,2.393,0,0,0,.877-.614c1.893-1.753,4.26-3.62,5.786-5.733C316,376.97,311,378.591,310.044,378.951Z" transform="translate(-37.962 -46.655)"/><path class="ap" d="M311.9,375.633a2.157,2.157,0,0,1,.728-1.85,16.147,16.147,0,0,1,3.936-3.243.482.482,0,0,1,.175-.07c.245,0,.377.272.421.517.21,1.2.675,4.383-.377,5.26S312.968,375.888,311.9,375.633Z" transform="translate(-38.633 -45.713)"/><path class="ap" d="M322.109,374.385c-.149.333.289.614.631.719L325,375.8a3.3,3.3,0,0,0,1.858.193,2.98,2.98,0,0,0,1.455-1.227,8.814,8.814,0,0,0,1.9-6.846,1.289,1.289,0,0,0-.228-.561.973.973,0,0,0-.982-.254,2.684,2.684,0,0,0-.929.526,28.621,28.621,0,0,0-4.532,4.383c-.745.877-1.946,2.779-3.322,2.831-1.753.061-.789-3.506-.614-4.444a5.083,5.083,0,0,1,.544-1.753,5.4,5.4,0,0,1,2.078-1.753l2.13-1.227a1.412,1.412,0,0,1,.789-.263.964.964,0,0,1,.771,1.017,2.814,2.814,0,0,1-.482,1.306l-2.507,4.339a9.787,9.787,0,0,1-1.166,1.753" transform="translate(-39.534 -45.087)"/><path class="aq" d="M307.16,391.4a11.8,11.8,0,0,0,4.05.245" transform="translate(-38.05 -48.296)"/><path class="aq" d="M308.69,393.461a20.873,20.873,0,0,0,12.544,5.312c4.655.158,9.45-1.964,11.817-5.943" transform="translate(-38.239 -48.472)"/><path class="aq" d="M336.16,396a2.182,2.182,0,0,1,1.63.377" transform="translate(-41.628 -48.859)"/><path class="aq" d="M337.43,375a15.219,15.219,0,0,1,1.815,7.784" transform="translate(-41.785 -46.272)"/><path class="k" d="M369.609,279.632c-.368-3.506-.631-7.013-1.35-10.519-.763-3.664-5.926-2.63-8.766-1.867a61.791,61.791,0,0,0-8.17,3.3,73.269,73.269,0,0,1-9.967,3.506c-.552.149-2.393.526-3.655.754.877,7.013,1.753,12.273,2.305,19.382a24.909,24.909,0,0,0,4.252-.693c1.324-.237,2.63-.421,3.988-.587,4.935-.622,9.985-.973,14.692-2.717A13.361,13.361,0,0,0,368,287.153a5.883,5.883,0,0,0,1.823-4.05A23.375,23.375,0,0,0,369.609,279.632Z" transform="translate(-41.818 -32.884)"/><path class="ar" d="M347.192,284.973c-.158,6.092-.245,12.623,3.112,17.707,1.508,2.279,4.243,4.269,6.829,3.366s3.41-3.761,3.971-6.3c2.086-9.4,3.375-18.961,4.655-28.507l2.542-18.961c.877-6.268,1.683-12.6,1.2-18.908a5.692,5.692,0,0,0-1.324-3.8c-.991-.938-2.63-1.1-4.059-1.113-4.173,0-10.344-.57-14.21,1.254-3.252,1.525-2.314,5.2-2.288,8.284q.123,15.209-.088,30.418Q347.411,276.689,347.192,284.973Z" transform="translate(-42.982 -28.179)"/><path class="as" d="M347.67,232.8a15.043,15.043,0,0,0,5.575,1.981,21.364,21.364,0,0,0,7.89-.43,25.22,25.22,0,0,0,8.2-2.717,4.032,4.032,0,0,0-1.078-2.06c-1.043-.991-2.63-1.1-4.059-1.113-4.173,0-10.344-.57-14.21,1.254A3.927,3.927,0,0,0,347.67,232.8Z" transform="translate(-43.049 -28.179)"/><path class="at" d="M351.949,240.773c0-.719-.184-1.385-.237-2.1,0-.307-.508-.307-.482,0,.053.71.228,1.376.237,2.1s0,1.657,0,2.49a.245.245,0,0,0,.482,0C351.957,242.438,351.957,241.562,351.949,240.773Z" transform="translate(-43.488 -29.422)"/><path class="at" d="M355.538,242.532a.245.245,0,0,0-.482,0v2.98c0,.991-.228,2.034-.245,3.059a.245.245,0,0,0,.482,0c0-1.026.219-2.034.245-3.059S355.538,243.523,355.538,242.532Z" transform="translate(-43.93 -29.902)"/><path class="at" d="M361.15,240.872v3.866a.245.245,0,0,0,.482,0v-3.866a.245.245,0,0,0-.482,0Z" transform="translate(-44.712 -29.697)"/><path class="at" d="M358.536,254.918a.241.241,0,0,0-.482,0,16.819,16.819,0,0,1-.21,1.876c-.053.491.131,1.148-.2,1.578-.193.245.149.587.342.342a2.077,2.077,0,0,0,.316-1.473C358.3,256.469,358.51,255.689,358.536,254.918Z" transform="translate(-44.272 -31.426)"/><path class="at" d="M362,254.088v1.648a.245.245,0,0,0,.482,0v-1.692a.245.245,0,0,0-.482.044Z" transform="translate(-44.817 -31.324)"/><path class="at" d="M366.93,240.872v2.174a.245.245,0,0,0,.482,0v-2.174a.245.245,0,0,0-.482,0Z" transform="translate(-45.425 -29.697)"/><path class="at" d="M352.231,257.972a.245.245,0,0,0-.482,0,11.392,11.392,0,0,1,0,1.894,10.935,10.935,0,0,0-.219,1.49.245.245,0,0,0,.482,0,14.5,14.5,0,0,1,.237-1.56A13.232,13.232,0,0,0,352.231,257.972Z" transform="translate(-43.525 -31.807)"/><path class="at" d="M353.609,268.412a.245.245,0,0,0-.482,0,4.035,4.035,0,0,1-.044,1.148,2.682,2.682,0,0,0-.193.78.245.245,0,0,0,.482,0,5.135,5.135,0,0,1,.219-.877A6.132,6.132,0,0,0,353.609,268.412Z" transform="translate(-43.693 -33.095)"/><path class="at" d="M359.518,267.139a1.753,1.753,0,0,0-.342,1.385c.053.877,0,1.753,0,2.63a.245.245,0,0,0,.482,0v-2.121c0-.5-.2-1.166.167-1.569A.224.224,0,1,0,359.518,267.139Z" transform="translate(-44.465 -32.954)"/><path class="at" d="M355.64,280.252v3.384a.245.245,0,0,0,.482,0v-3.384a.245.245,0,0,0-.482,0Z" transform="translate(-44.032 -34.556)"/><path class="at" d="M362.758,282.6a3.612,3.612,0,0,0-.272,1.464,11.838,11.838,0,0,1-.237,2.218c-.061.307.4.43.465.131a12.424,12.424,0,0,0,.228-1.613,5.667,5.667,0,0,1,.228-1.955C363.3,282.568,362.907,282.322,362.758,282.6Z" transform="translate(-44.847 -34.856)"/><path class="at" d="M353.676,294.572a16.2,16.2,0,0,1-.237,3.314c-.061.307.4.429.465.131a16.8,16.8,0,0,0,.254-3.445.245.245,0,0,0-.482,0Z" transform="translate(-43.76 -36.323)"/><path class="at" d="M351.408,286.042a.245.245,0,0,0-.482,0,20.888,20.888,0,0,1-.237,4.76c-.07.307.394.43.465.132a21.443,21.443,0,0,0,.254-4.891Z" transform="translate(-43.42 -35.271)"/><path class="at" d="M352.06,305.042v1.692a.245.245,0,0,0,.482,0v-1.692a.245.245,0,0,0-.482,0Z" transform="translate(-43.59 -37.615)"/><path class="k" d="M354.852,267.927c-1.42.368-3.121,1.1-3.182,2.568,1.753,1.867,4.655,1.753,7.171,1.438l13.982-1.6-18.409,3.8c-.745.158-1.613.4-1.885,1.113a1.56,1.56,0,0,0,.8,1.753,4.3,4.3,0,0,0,2.051.412,104.459,104.459,0,0,0,17.471-1.481l-9.827,1.946a45.592,45.592,0,0,0-8.38,2.227c-1.262.517-2.709,1.657-2.227,2.937s2.06,1.227,3.3,1.061q7.381-.973,14.736-2.209a82.264,82.264,0,0,0-10.519,2.91c-2.63.824-6.461,1.1-7.995,3.647a2.069,2.069,0,0,0,1.587.6,66.738,66.738,0,0,0,16.568-.877,4.628,4.628,0,0,0,1.753-.57c.78-.508.92-1.569,1.139-2.411a3.506,3.506,0,0,0-.938-3.506,3.506,3.506,0,0,0,2.367-5.54,3.506,3.506,0,0,0,0-6.268,3.226,3.226,0,0,0-.57-4.576c-2.349-1.631-6.136-.123-8.643.351C361.76,266.323,358.28,267.042,354.852,267.927Z" transform="translate(-43.542 -32.645)"/><path class="k" d="M373.384,256.383a5.128,5.128,0,0,1-.71,2.542c-.614,1.262-1.367,2.63-2.674,3.112a34.432,34.432,0,0,1,.631-6.136C371.061,253.71,373.243,254.446,373.384,256.383Z" transform="translate(-45.804 -31.411)"/><path class="au" d="M239.986,356.777c1.438,3.314,5.391,4.611,8.924,5.365,16.971,3.612,34.679,3.121,51.72-.193a16.165,16.165,0,0,0,5.917-2.016,5.875,5.875,0,0,0,2.867-5.26c0-.131-32.1.36-35.064.324q-8.836-.1-17.664-.377c-5.759-.184-11.948-1.14-17.655-.631A6.618,6.618,0,0,0,239.986,356.777Z" transform="translate(-29.643 -43.661)"/><ellipse class="av" cx="61.555" cy="13.999" rx="61.555" ry="13.999" transform="translate(183.912 273.774)"/><path class="aw" d="M271.525,312.31c-33.995,0-61.555,6.268-61.555,14.026a4.725,4.725,0,0,0,1.832,3.4,86.835,86.835,0,0,1,13.658-4.094c17.252-4.024,35.248-3.164,52.6-.359a119,119,0,0,1,35.652,11.247c11.9-2.551,19.347-6.136,19.347-10.186C333.09,318.578,305.547,312.31,271.525,312.31Z" transform="translate(-26.058 -38.537)"/><path class="ax" d="M316.946,337.328c-19.671,4.593-40.026,5.26-60.074,4.479a144.278,144.278,0,0,1-28.437-3.384c-5.829-1.394-13.736-6.136-18.409-10.134-.3.675,1.666,5.014,2.525,6.575a35.363,35.363,0,0,0,12.579,12.842c7.179,4.383,15.5,6.654,23.809,8.074a138.216,138.216,0,0,0,59.767-3.007,47.293,47.293,0,0,0,9.722-3.6c7.066-3.761,12.79-13.149,14.709-20.872C328.692,331.735,323.529,335.785,316.946,337.328Z" transform="translate(-26.061 -40.508)"/><path class="ay" d="M229.536,332.427l-1.026-5.891a16.989,16.989,0,0,1,6.653,5.032,30.339,30.339,0,0,1-4.655-14.026,1.955,1.955,0,0,1,.421-1.674c.736-.631,1.85.079,2.5.806a20.829,20.829,0,0,1,4.383,7.889c-.456-5.26-.833-10.966,1.841-15.56.526-.877,1.429-1.85,2.446-1.6A2.6,2.6,0,0,1,243.606,309a51.773,51.773,0,0,1,4.8,14.683,22.547,22.547,0,0,1,1.99-10.37c.316-.693.789-1.464,1.552-1.525,1.052-.1,1.648,1.166,1.9,2.192a70.442,70.442,0,0,1,1.972,13.509,14.42,14.42,0,0,1,6.61-12.965,2.332,2.332,0,0,1,2-.456c.815.316,1.061,1.332,1.157,2.2a38.9,38.9,0,0,1-.3,11.028,16.717,16.717,0,0,1,.517-5.768,6.5,6.5,0,0,1,3.708-4.234,1.359,1.359,0,0,1,1.394.1,1.525,1.525,0,0,1,.342,1,40.245,40.245,0,0,1-2.06,16.6,12.886,12.886,0,0,1,8.31-9.388,9.213,9.213,0,0,1-1.823,8.24,24.055,24.055,0,0,1,4.506-6.487c1.946-1.753,4.707-2.919,7.267-2.262a6.233,6.233,0,0,1-1.385,5.111c-.982-7.25-1.087-14.955,2.174-21.5a9.5,9.5,0,0,1,3.156-3.91,4.471,4.471,0,0,1,4.8-.193,5.628,5.628,0,0,1,1.613,1.9c3.217,5.531,2.63,12.4,1.92,18.751A13.447,13.447,0,0,1,304.705,314c1.026-.815,2.63-1.446,3.559-.535a2.787,2.787,0,0,1,.684,1.569c.789,4.383-.631,8.766-2.025,13.026,1.043-2.63,2.13-5.356,4.164-7.328s5.26-3,7.758-1.648l-3.279,8.415a12.22,12.22,0,0,1,9.529-7.539c.614,1.858-.123,3.875-.877,5.7-1.21,3.016-2.525,6.136-5.084,8.188a17.007,17.007,0,0,1-6.443,2.735c-15.779,4.033-32.285,3.708-48.564,3.366-10.721-.228-21.354-.649-31.786-3.375-6.268-1.639-11.352-3.647-12.211-10.861a26.107,26.107,0,0,1,9.406,6.715Z" transform="translate(-27.311 -37.51)"/><path class="as" d="M247.224,341.585a266.434,266.434,0,0,0,39.325,2.63,132.1,132.1,0,0,0,18.032-2.56,7.315,7.315,0,0,0,.736-1.578,26.738,26.738,0,0,0,1.411-6.259c.132-1.271.044-2.788-1.026-3.506a2.989,2.989,0,0,0-2.192-.237,9.432,9.432,0,0,0-6.04,4.716,15.823,15.823,0,0,0-1.481,3.62,13.64,13.64,0,0,0,0-1.753,2.525,2.525,0,0,0-1.087-2.279,2.393,2.393,0,0,0-2.1.272,8.95,8.95,0,0,0-4.742,7.355,18.576,18.576,0,0,0-.368-5.453c-.149-.7-.473-1.508-1.183-1.631a1.754,1.754,0,0,0-1.192.386,7.889,7.889,0,0,0-3.349,5.724,16.139,16.139,0,0,0-.675-7.469,4.558,4.558,0,0,0-1.157-2.007c-1.227-1.087-3.182-.8-4.62,0a8.442,8.442,0,0,0-4.129,7.434l-.526-3.34a1.8,1.8,0,0,0-.377-1.008c-.622-.64-1.692-.061-2.3.587a11.283,11.283,0,0,0-2.779,5.26,14.5,14.5,0,0,0-3.62-7.3c-.666-.719-1.665-1.42-2.551-1a2.411,2.411,0,0,0-1.069,1.885,17.428,17.428,0,0,0,0,6.136,22.274,22.274,0,0,0-5.531-6.838,22.266,22.266,0,0,0-.745,6.136,22.547,22.547,0,0,0-3.392-4.716c-.64-.684-1.832-1.306-2.384-.552a1.578,1.578,0,0,0-.2,1.017,23.277,23.277,0,0,0,1.306,6.329Z" transform="translate(-30.491 -40.715)"/><path class="az" d="M128.274,348.809a23.4,23.4,0,0,1,8.354-1.367,29.489,29.489,0,0,1,6.434,1.639,57.706,57.706,0,0,0,12.273,2.446c3.445.307,7.2.219,9.976-1.85,1.3-.964,2.279-2.3,3.594-3.235a12.2,12.2,0,0,1,5.347-1.876,30.128,30.128,0,0,1,17.313,2.63c2.5,1.192,5.137,3.314,4.891,6.075-.184,2.051-2.007,3.647-3.971,4.278a20.04,20.04,0,0,1-6.136.517,51.358,51.358,0,0,0-5.575.316c-4.813.535-2.253,3.287.543,4.6,1.578.736,3.226,2.577,2.192,3.971a3.279,3.279,0,0,1-1.648.973l-45.014,15.779-13.4,4.663a34.521,34.521,0,0,1-8.827,2.244,28.712,28.712,0,0,1-11.08-1.893c-11.475-3.831-22-10-32.435-16.138a2.963,2.963,0,0,1-1.131-.938c-.728-1.236.57-2.63,1.753-3.454,5.566-3.655,12.325-5.216,18.567-7.46,6.618-2.376,13.307-4.541,20.03-6.6C116.29,352.3,122.286,350.553,128.274,348.809Z" transform="translate(-8.757 -42.478)"/><path class="ba" d="M82.925,372.232c4.935-.78,8.81-3.664,12.965-6.233a26.528,26.528,0,0,1,6.031-2.928c2.341-.728,4.751-1.166,7.127-1.753,4.778-1.175,9.169-3.3,12.413-7.074a21.6,21.6,0,0,0,2.341-3.314c-4.5,1.315-8.994,2.63-13.482,4.015-6.724,2.06-13.412,4.216-20.031,6.6-6.241,2.244-12.991,3.8-18.567,7.46-.991.649-2.051,1.753-1.972,2.8A34.273,34.273,0,0,0,82.925,372.232Z" transform="translate(-8.755 -43.302)"/><path class="ba" d="M140.163,348.191c-1.227,1.157-2.525,2.244-3.726,3.4a23.611,23.611,0,0,0-2.086,2.227c-.394.482-1.753,1.946-1.438,2.49.622,1.21,4.444-.228,5.26-.535,1.753-.622,3.349-1.42,5.04-2.121s3.384-1.227,5.032-1.955a39.511,39.511,0,0,0,3.7-1.85l-1.14-.342a29.5,29.5,0,0,0-6.434-1.639,15.6,15.6,0,0,0-4.208.324Z" transform="translate(-16.544 -42.92)"/><path class="ba" d="M104.669,377.026a74.615,74.615,0,0,1,8.258-1.087c3.051-.368,6.092-.877,9.108-1.438a75.618,75.618,0,0,0,17.357-5.3,24.107,24.107,0,0,0,10.107-8.766,62.622,62.622,0,0,1,4.041-6.3c.543-.649,1.1-1.28,1.666-1.911-.535-.07-1.069-.14-1.6-.228a34.771,34.771,0,0,1-7.8,4.97,62.77,62.77,0,0,1-15.06,4.593c-5.926,1.131-11.957,1.613-17.76,3.331a40.553,40.553,0,0,0-16.357,9.643,99.056,99.056,0,0,1-8.521,7.425q2.034,1.078,4.094,2.1a25.755,25.755,0,0,1,12.465-7.022Z" transform="translate(-11.021 -43.433)"/><path class="ba" d="M202.245,347.263l-.517-.237a13.151,13.151,0,0,1-2.945,2.63,16,16,0,0,1-6.61,2.332,32.74,32.74,0,0,0-8.985,2.867c-2.945,1.429-5.645,3.366-8.608,4.734-.693.324-2.323,1.1-2.63-.079s.982-2.682,1.543-3.506c1.324-1.929,2.858-3.734,4.269-5.593a32.685,32.685,0,0,1,4.813-5.26,9.644,9.644,0,0,0-2.954,1.368c-1.315.938-2.305,2.27-3.594,3.235a11.711,11.711,0,0,1-6.952,1.972,30.275,30.275,0,0,0-2.63,5.1c-.982,2.244-1.876,5-3.664,6.759-1.543,1.517-3.314,2.779-4.786,4.383-.395.43-1.823,1.753-1.385,2.454s1.946.088,2.428-.053c4.006-1.148,7.425-3.726,11.4-4.979,6.057-1.92,12.272-4.243,18.628-4.681-.622-1.026-.21-1.99,2.437-2.279a51.274,51.274,0,0,1,5.575-.316,20.031,20.031,0,0,0,6.136-.517c1.964-.631,3.778-2.227,3.971-4.278C207.382,350.576,204.743,348.455,202.245,347.263Z" transform="translate(-19.463 -42.589)"/><path class="ba" d="M153.322,378.986c-5.777-.359-11.4.351-17.138.938-5.26.535-10.519.877-15.779,1.753-6.89,1.175-15.008,3.436-20,8.766q3.379,1.42,6.864,2.63a29.017,29.017,0,0,0,11.08,1.894,34.509,34.509,0,0,0,8.871-2.323l13.412-4.707,23.923-8.389C160.8,379.617,157.03,379.188,153.322,378.986Z" transform="translate(-12.539 -46.752)"/><path class="bb" d="M181.3,365.445a10.171,10.171,0,0,1-1.429-.815l-.193.07-45.014,15.779-13.412,4.707a34.51,34.51,0,0,1-8.836,2.244,28.711,28.711,0,0,1-11.08-1.893c-10.519-3.506-20.293-9.02-29.892-14.648-1.1.815-2.156,2.121-1.481,3.261a2.954,2.954,0,0,0,1.122.947c10.432,6.136,20.951,12.273,32.435,16.138a29.015,29.015,0,0,0,11.08,1.893,34.516,34.516,0,0,0,8.845-2.244l13.412-4.707L181.868,370.4a3.279,3.279,0,0,0,1.648-.973C184.524,368.023,182.867,366.182,181.3,365.445Z" transform="translate(-8.755 -44.992)"/><path class="bb" d="M209.666,350.29c-1.411,2.858-5.26,4.523-8.819,5.023a24.439,24.439,0,0,1-7.328,0c-.631-.105-2.2-.614-3.769-.982a2.148,2.148,0,0,0-.6,2.3,3.348,3.348,0,0,0,1.28,1.306,8.371,8.371,0,0,0,2.349,1.271c1.131.333,2.227-.088,3.349-.21a45.6,45.6,0,0,1,4.909-.245,20.036,20.036,0,0,0,6.136-.517c1.964-.631,3.778-2.227,3.971-4.278a4.734,4.734,0,0,0-1.482-3.664Z" transform="translate(-23.475 -43.223)"/><path class="bb" d="M191.915,348.532a1.385,1.385,0,0,0-.6.877,1.49,1.49,0,0,0,.806,1.271c1.753,1.148,3.927,1.14,5.987,1.087a3.357,3.357,0,0,0,1.63-.316,1.753,1.753,0,0,0,.719-2.025C199.524,346.91,193.668,347.252,191.915,348.532Z" transform="translate(-23.755 -42.885)"/><path class="bc" d="M374.475,416.456c1.043,2.77,3.9,3.857,6.452,4.488a81.345,81.345,0,0,0,37.379-.158,10.661,10.661,0,0,0,4.278-1.692,5.146,5.146,0,0,0,2.077-4.383c0-.105-23.2.3-25.325.272q-6.382-.079-12.772-.316c-4.164-.149-8.635-.956-12.763-.535a6.136,6.136,0,0,0,.675,2.323Z" transform="translate(-46.273 -51.086)"/><ellipse class="bd" cx="44.497" cy="11.711" rx="44.497" ry="11.711" transform="translate(309.101 332.471)"/><path class="be" d="M397.277,379.27c-24.545,0-44.5,5.26-44.5,11.711a4.173,4.173,0,0,0,1.324,2.849,56.542,56.542,0,0,1,9.871-3.4c12.474-3.366,25.483-2.63,38.045-.307a77.922,77.922,0,0,1,25.772,9.406c8.608-2.139,14.026-5.163,14.026-8.521C441.773,384.512,421.848,379.27,397.277,379.27Z" transform="translate(-43.679 -46.799)"/><path class="bf" d="M430.114,400.186c-14.219,3.84-28.928,4.383-43.427,3.752a90.938,90.938,0,0,1-20.565-2.831c-4.216-1.166-9.932-5.128-13.324-8.477-.21.57,1.2,4.19,1.823,5.5a28.05,28.05,0,0,0,9.1,10.738c5.19,3.69,11.2,5.566,17.208,6.75a86.784,86.784,0,0,0,43.182-2.5,31.4,31.4,0,0,0,7.013-3.015c5.128-3.121,9.257-11.01,10.651-17.471C438.591,395.514,434.865,398.9,430.114,400.186Z" transform="translate(-43.679 -48.447)"/><path class="ay" d="M366.936,396.095l-.745-4.927A12.641,12.641,0,0,1,371,395.376a28.166,28.166,0,0,1-3.366-11.7,1.823,1.823,0,0,1,.307-1.4c.535-.535,1.341.061,1.806.675a18.33,18.33,0,0,1,3.191,6.61c-.333-4.383-.6-9.178,1.332-13.009.386-.754,1.034-1.552,1.753-1.332a2.021,2.021,0,0,1,1.087,1.332,48.213,48.213,0,0,1,3.506,12.273,21.45,21.45,0,0,1,1.438-8.678c.228-.579.57-1.218,1.122-1.28.763-.079,1.192.973,1.376,1.832a67.573,67.573,0,0,1,1.429,11.3,12.741,12.741,0,0,1,4.76-10.87,1.516,1.516,0,0,1,1.446-.386c.587.263.763,1.113.877,1.841a37.582,37.582,0,0,1-.219,9.231,16.094,16.094,0,0,1,.377-4.83,5.26,5.26,0,0,1,2.682-3.506.877.877,0,0,1,1.008.079,1.4,1.4,0,0,1,.245.877,38.612,38.612,0,0,1-1.49,13.885,10.406,10.406,0,0,1,6-7.889,8.644,8.644,0,0,1-1.324,6.9,20.434,20.434,0,0,1,3.261-5.426c1.411-1.5,3.4-2.446,5.26-1.894a5.812,5.812,0,0,1-1,4.269c-.71-6.066-.78-12.509,1.569-17.988a7.837,7.837,0,0,1,2.279-3.27,2.866,2.866,0,0,1,3.506-.167,4.6,4.6,0,0,1,1.166,1.587c2.323,4.628,1.893,10.361,1.385,15.682a12.079,12.079,0,0,1,3.6-9.406c.745-.684,1.885-1.21,2.568-.447a2.516,2.516,0,0,1,.491,1.315c.57,3.655-.456,7.364-1.464,10.9a17.91,17.91,0,0,1,3.007-6.136c1.464-1.657,3.813-2.507,5.61-1.376l-2.376,7.013a9.2,9.2,0,0,1,6.89-6.3,8.091,8.091,0,0,1-.614,4.76c-.877,2.525-1.823,5.163-3.673,6.846a11.484,11.484,0,0,1-4.655,2.288c-11.4,3.375-23.344,3.1-35.064,2.814-7.749-.193-15.437-.543-22.976-2.823-4.532-1.367-8.205-3.051-8.827-9.082A19.206,19.206,0,0,1,366.936,396.095Z" transform="translate(-44.607 -45.942)"/><path class="as" d="M379.694,403.745a166.878,166.878,0,0,0,28.428,2.165,83.387,83.387,0,0,0,13.035-2.148,6.587,6.587,0,0,0,.535-1.324,25.42,25.42,0,0,0,1.017-5.26c.1-1.061,0-2.332-.745-2.91a1.9,1.9,0,0,0-1.587-.2,7.074,7.074,0,0,0-4.383,3.945,14.479,14.479,0,0,0-1.069,3.033,13.19,13.19,0,0,0,0-1.5,2.244,2.244,0,0,0-.771-1.841,1.534,1.534,0,0,0-1.516.228,7.652,7.652,0,0,0-3.393,6.136,17.919,17.919,0,0,0-.263-4.558c-.114-.587-.342-1.262-.877-1.359a1.131,1.131,0,0,0-.877.324,6.811,6.811,0,0,0-2.419,4.786,15.507,15.507,0,0,0-.491-6.25,3.988,3.988,0,0,0-.877-1.683,2.7,2.7,0,0,0-3.34,0,7.363,7.363,0,0,0-2.98,6.215l-.377-2.8a1.647,1.647,0,0,0-.272-.877c-.447-.535-1.227-.053-1.666.491a9.992,9.992,0,0,0-2.007,4.383,12.948,12.948,0,0,0-2.63-6.136c-.482-.6-1.2-1.183-1.841-.877a2.1,2.1,0,0,0-.771,1.578,16.83,16.83,0,0,0,0,5.093,18.409,18.409,0,0,0-4-5.715,21.391,21.391,0,0,0-.543,5.1,19.048,19.048,0,0,0-2.455-3.945c-.465-.57-1.324-1.1-1.753-.456a1.5,1.5,0,0,0-.14.877,22.173,22.173,0,0,0,1.026,5.479Z" transform="translate(-46.872 -48.614)"/><path class="n" d="M396.061,407.528a95.267,95.267,0,0,1-16.55-1.464c-12.413-2.192-21.039-6.5-26.421-13.149l.754-.6c5.207,6.478,13.658,10.668,25.834,12.816,22.406,3.954,44.576-.28,60.819-11.606l.552.789C428.636,402.952,412.813,407.528,396.061,407.528Z" transform="translate(-43.718 -48.408)"/><path class="q" d="M511.974,159.524c3.559,3.129,6.338,7.013,9.073,10.923l23.537,33.311c7.013,9.914,14.657,19.7,20.592,30.173a9.184,9.184,0,0,1-.07,8.266,22.126,22.126,0,0,1-5.365,6.636c-5.716,5.26-12.159,9.643-18.584,14.026-8.179,5.549-16.349,11.1-24.677,16.428q-6.136,3.91-12.351,7.635c-1.666.991-3.506,2.63-5.382,2.49-1.639-.123-3.506-1.692-4.707-2.63a38.57,38.57,0,0,1-10.449-13.149c-2.323-4.769-4.269-8.643.622-11.913,10.66-7.118,21.319-14.271,30.909-22.792,2.516-2.244,7.679-6.224,6.89-9.888-.824-3.822-4.532-8.372-6.566-11.7-4.734-7.793-9.9-15.367-13.763-23.668-3.953-8.468-6.461-18.1-5.365-27.49.324-2.744,1.14-10.072,3.883-11.6C503.436,152.7,509.739,157.525,511.974,159.524Z" transform="translate(-59.522 -19.021)"/><path class="ab" d="M87.044,278.2c6.96-6.583,14.9-11.931,22.52-17.708,3.331-7.548,27.4-50.054,26.605-56.05-2.148-16.095-30.112-24.229-41.735-27.447,0,0-24.948,64.141-31.8,81.954-3.454,8.968-13.456,31.725,4.576,43.524C73.229,293.94,79.462,285.384,87.044,278.2Z" transform="translate(-7.15 -21.84)"/><line class="ac" x2="55.551" y2="14.56" transform="translate(0 448.49)"/><path class="n" d="M540.6,235.8l-.526-.552a7.033,7.033,0,0,0-6.364-1.587,24,24,0,0,0-3.8,1.122c-.754.272-1.543.552-2.314.771a2.323,2.323,0,0,1-1.411.1,2.63,2.63,0,0,1-1.052-1.061c-4.672-6.9-9.161-13.982-13.456-21.17l-.824.508c4.3,7.2,8.766,14.289,13.482,21.2a3.419,3.419,0,0,0,1.508,1.429,3.2,3.2,0,0,0,2.016-.07c.806-.228,1.6-.508,2.376-.789a23.27,23.27,0,0,1,3.647-1.078,6.61,6.61,0,0,1,4.874.78,65.042,65.042,0,0,1-12.053,2.63l.061.964a19.381,19.381,0,0,1,9.257,2.209,4.567,4.567,0,0,1,2.139,1.85,1.877,1.877,0,0,1,.061,1.429,1.131,1.131,0,0,1-.6.666c-.675.281-1.508-.158-2.306-.631a53.165,53.165,0,0,0-8.608-4.12,6.942,6.942,0,0,0-3.691-.587,7.38,7.38,0,0,0-3.164,1.815L482.74,270.031h1.753l35.941-27.7a6.547,6.547,0,0,1,2.726-1.6,6.075,6.075,0,0,1,3.165.543,52.182,52.182,0,0,1,8.45,4.041c.745.447,2,1.183,3.173.684a2.086,2.086,0,0,0,1.122-1.21,2.84,2.84,0,0,0-.088-2.183,5.5,5.5,0,0,0-2.542-2.288,20.424,20.424,0,0,0-5.628-1.955,65.982,65.982,0,0,0,9.038-2.314Z" transform="translate(-59.715 -26.334)"/><path class="n" d="M501.124,298.91a25.846,25.846,0,0,0-1.867-4.383,47.885,47.885,0,0,0-10.6-13.622c-1.49-1.332-3.638-2.98-6.049-3.094a8.767,8.767,0,0,1-.57.964c2.305-.158,4.488,1.525,5.97,2.849A46.918,46.918,0,0,1,498.4,294.974a24.953,24.953,0,0,1,1.8,4.216,19.222,19.222,0,0,1,.877,5.084h.158l.7-.281a20.1,20.1,0,0,0-.806-5.084Z" transform="translate(-59.629 -34.279)"/><path class="i" d="M485.819,285.138h0c-1.157-.333-9.713,4.769-13.789,6.04-4.558,1.42-9.441,1.639-13.947,3.226-8.933,3.147-18.83,16.752-16.156,21.521a.079.079,0,0,0,.123,0L452.28,303.6a46.461,46.461,0,0,0-7.372,13.789.079.079,0,0,0,0,.1c1.3.622,2.691-.693,3.568-1.867l6.68-9.029a.073.073,0,1,1,.123.079,32.321,32.321,0,0,0-3.629,9.371.088.088,0,0,0,0,.088c.982.508,2.078-.526,2.726-1.455l6.855-9.774c-2.56,4.015-5.216,8.354-5.067,13.149a.079.079,0,0,0,.1.079c2.472-.649,3.778-3.3,5-5.558,1.315-2.446,3.059-4.891,5.663-5.865a18.086,18.086,0,0,1,4.742-.7c7.013-.614,21.547-8.573,21.7-10.388a.08.08,0,0,0,0-.053C491.561,292.843,488.107,287.426,485.819,285.138Z" transform="translate(-54.624 -35.182)"/><path class="n" d="M413.525,290.755l-.666-.57c2.06-2.428,2.875-6.136,2.227-10.142a40.825,40.825,0,0,0-2.858-8.854l-.631-1.552a115.32,115.32,0,0,1-4.514-13.684l-.184-.71a22.549,22.549,0,0,0-2.831-7.355,22.27,22.27,0,0,0-2.349-2.709c-.57-.587-1.157-1.2-1.7-1.85-5.566-6.68-5.26-16.191-4.532-25.36l.877.07c-.745,8.985-1.017,18.3,4.33,24.729.517.622,1.1,1.218,1.657,1.806a22.991,22.991,0,0,1,2.446,2.823,23.386,23.386,0,0,1,2.963,7.635l.184.7a114.275,114.275,0,0,0,4.479,13.579l.631,1.543a41.537,41.537,0,0,1,2.919,9.047C416.637,284.215,415.752,288.125,413.525,290.755Z" transform="translate(-48.9 -26.896)"/></g></svg>