<svg xmlns="http://www.w3.org/2000/svg" width="80.23" height="66.961" viewBox="0 0 80.23 66.961"><defs><style>.a{opacity:0.46;}.a,.b,.c{mix-blend-mode:multiply;isolation:isolate;}</style></defs><g class="a"><g class="b" transform="translate(0 0)"><path class="c" d="M79.572,20.636A26.874,26.874,0,0,0,74.438,9.641a25.174,25.174,0,0,0-10-6.911C56.782-.433,47.834-1.083,40.079,1.983c-7.29,2.849-13.562,8.85-15.49,16.573l-1.083.314c-2.979.932-5.784,2.3-8.731,3.336s-6.651,1.766-9.121-.758l.173-.152c.5-.4-.206-1.083-.7-.7Q2.741,22.456.5,24.492a.574.574,0,0,0,0,.812,6.337,6.337,0,0,1,1.527,7.582C1.083,35.183.065,37.22,0,39.754a16.1,16.1,0,0,0,3.369,9.9,24.914,24.914,0,0,0,8.947,10.713,37,37,0,0,0,16.248,6.5,24.794,24.794,0,0,0,9.944-1.2c3.25-.921,6.5-1.831,9.3-3.77a31.283,31.283,0,0,0,7.355-7.279c7.756,1.527,15.165-2.242,19.314-8.806a37.728,37.728,0,0,0,4.528-12,60.952,60.952,0,0,0,1.148-6.6,18.794,18.794,0,0,0-.585-6.575ZM1.343,38.021c.52-2.611,2.307-4.809,2.556-7.485a7.073,7.073,0,0,0-2.1-5.622q1.69-1.614,3.488-3.1c2.741,3.759,7.962,2.047,11.547.65,5.124-2.015,10.085-3.845,15.609-4.419A43.328,43.328,0,0,1,48.159,19.2c4.744,1.278,9.868,4.019,10.832,9.294,0,.217.076.444.087.661a.563.563,0,0,0,0,.574,10.6,10.6,0,0,1-2.3,6.207,62.825,62.825,0,0,1-4.994,6.088,33.5,33.5,0,0,1-12.316,8.33A65.415,65.415,0,0,1,25.25,54.161a34.933,34.933,0,0,1-8.666.282,22.249,22.249,0,0,1-8.178-1.906C3.542,50,.282,43.4,1.343,38.021ZM53.51,44.629a16.864,16.864,0,0,1-2.047,1.083s-.054-.964-.1-1.2a.26.26,0,0,0-.119-.184,54.918,54.918,0,0,0,4.105-4.6,26.3,26.3,0,0,0,4.224-6.142,9.239,9.239,0,0,0,.466-1.4v2.166a41.813,41.813,0,0,1-.206,4.246q-.173,1.657-.487,3.25a2.556,2.556,0,0,0-.867.823c-.141.195-.238.433-.4.628-.52.628-.585.347-1.181.574a3.791,3.791,0,0,0-1.083.856,4.333,4.333,0,0,1-1.679.888,4.029,4.029,0,0,0,.152-.477.509.509,0,0,0-.78-.52ZM47.325,60.66a26.593,26.593,0,0,1-8.254,3.553,27.08,27.08,0,0,1-9.326,1.581c-5.416-.314-11.06-2.643-15.6-5.535a28.868,28.868,0,0,1-8.611-8.265l.487.4a14.385,14.385,0,0,0,6.629,2.665,41.02,41.02,0,0,0,8.308.661,57.735,57.735,0,0,0,16.14-3.25,38.421,38.421,0,0,0,12.728-6.9c.282-.238.552-.487.823-.737-.108.574-.206,1.322.3,1.614a1.95,1.95,0,0,0,1.625-.206.509.509,0,0,0,.5.65,6.434,6.434,0,0,0,3.737-1.625c.542-.4,1.192-.39,1.69-.845a2.092,2.092,0,0,0,.249-.282c-.227.856-.487,1.7-.78,2.524a29.918,29.918,0,0,1-10.648,14ZM78.554,29.735A54.258,54.258,0,0,1,75.131,41.65a21.014,21.014,0,0,1-7.507,9.261A17.331,17.331,0,0,1,55.958,53.4a29.311,29.311,0,0,0,2.881-5.611A35.952,35.952,0,0,0,61.006,37.75a44.226,44.226,0,0,0,.076-5.524,4.571,4.571,0,0,0-.823-2.979,11.146,11.146,0,0,0-4.4-7.767c-3.91-3.065-9.207-4.04-14.082-4.528a46.09,46.09,0,0,0-16.508,1.462A26.235,26.235,0,0,1,37.912,4.03C44.715.477,52.871.206,60.2,2.286a29.344,29.344,0,0,1,10.659,5.3,21.437,21.437,0,0,1,6.5,9.749,35.485,35.485,0,0,1,1.484,5.763,18.414,18.414,0,0,1-.292,6.64Z" transform="translate(0 0.008)"/><path class="c" d="M54.772,36.231c-.8-.119-1.451.487-2.166.888a.563.563,0,0,0,.13,1.018v.108a.542.542,0,0,0-.888.238c-.282.942-.682,1.6-1.722,1.148a.206.206,0,0,0-.3.119c-.152.747.7,1.083,1.332.986a2.036,2.036,0,0,0,1.473-1.386,1.148,1.148,0,0,0,1.289-.52,1.083,1.083,0,0,0,0-1.083A2.058,2.058,0,0,0,55,36.664.347.347,0,0,0,54.772,36.231Z" transform="translate(4.144 3.022)"/><path class="c" d="M50.131,43.522a18.287,18.287,0,0,1-1.744,1.007c-.661.249-2.34.823-2.448-.487a.173.173,0,0,0-.314-.087c-.672.932.552,1.636,1.376,1.614a4.669,4.669,0,0,0,3.488-1.625A.285.285,0,0,0,50.131,43.522Z" transform="translate(3.78 3.628)"/><path class="c" d="M51.239,33.21A8.579,8.579,0,0,0,44.913,38.1a.325.325,0,0,0,.563.325,12.749,12.749,0,0,1,2.491-2.979,17.722,17.722,0,0,1,3.347-1.95A.152.152,0,0,0,51.239,33.21Z" transform="translate(3.734 2.772)"/><path class="c" d="M46.8,34.145a15.425,15.425,0,0,0-1.083-1.657.292.292,0,0,0,.39-.292c0-4.225-3.748-8.113-7.832-8.666-2.806-.412-5.838.26-8.666.726-3.174.542-6.369,1.083-9.489,1.809-.141,0-.119.271,0,.26,5.264-.574,10.442-2.08,15.75-2.318a8.9,8.9,0,0,1,9.511,8.135,15.512,15.512,0,0,0-8.384-6.283c-5.08-1.311-9.814,1.711-14.775,2.166a.422.422,0,0,0-.206.78A14.981,14.981,0,0,1,27.169,33.8a9.391,9.391,0,0,0,4.4,3.824,24.156,24.156,0,0,0,6.618,1.083,15.241,15.241,0,0,0,7.138-.78c.5-.206.282-1.018-.227-.812a14.721,14.721,0,0,1-6.922.758c-2.34-.184-4.918-.314-7.063-1.365s-3.076-3.022-4.333-4.8a13.064,13.064,0,0,0-3.25-3.087c4.246-.747,8.438-3.033,12.782-2.166s7.4,4.593,10.215,7.821A.151.151,0,1,0,46.8,34.145Z" transform="translate(1.666 1.956)"/><path class="c" d="M41.541,40.358a33.742,33.742,0,0,0-6.586.314c-2.166.141-4.6.379-6.64-.639s-3.25-3.315-4.5-5.124a62.153,62.153,0,0,0-4.073-5.546c-.1-.119-.271,0-.206.162a71.749,71.749,0,0,0,4.43,6.759c1.148,1.679,2.275,3.531,4.17,4.452a11.85,11.85,0,0,0,5.9.715l3.921-.26a17.678,17.678,0,0,0,3.575-.347C41.758,40.781,41.8,40.391,41.541,40.358Z" transform="translate(1.625 2.448)"/><path class="c" d="M42.341,41.766a17.429,17.429,0,0,1-9.326,2.719c-3.5-.13-6.3-1.776-9.088-3.835A8.936,8.936,0,0,1,20.5,36.643c-.477-1.354-.563-2.784-1.365-4.019-1.711-2.589-4.6-4.257-7.128-5.893-.108-.065-.195.1-.1.162a47.4,47.4,0,0,1,4.723,3.856,8.8,8.8,0,0,1,2.957,4.842c.737,3.13,2.795,4.864,5.329,6.651A14.3,14.3,0,0,0,33.892,45.2a18.891,18.891,0,0,0,8.882-2.773.4.4,0,0,0-.433-.661Z" transform="translate(0.988 2.232)"/><path class="c" d="M38.335,21.377a21.328,21.328,0,0,0-9.868.91C24.686,23.478,21,25.211,17.115,23.37a.141.141,0,0,0-.141.238c2.318,1.657,5.416,1.224,7.929.455,3.423-1.018,6.618-2.242,10.247-2.3,6.629-.1,13.258,4.2,12.923,11.4,0,.433.6.4.65,0C49.5,27.118,43.816,22.287,38.335,21.377Z" transform="translate(1.408 1.77)"/><path class="c" d="M34.882,46.541c-3.618.238-7.138.921-10.691-.249a12.576,12.576,0,0,1-6.824-5.579c-1.614-2.773-1.581-6.023-2.9-8.882A12.143,12.143,0,0,0,8.8,25.722c-.217-.1-.509.184-.282.368,2.719,2.166,4.939,4.5,5.882,7.983a52.414,52.414,0,0,0,1.289,5.167,13.269,13.269,0,0,0,2.026,3.51c4.2,5.286,11.049,5.752,17.266,4.582a.4.4,0,0,0-.1-.791Z" transform="translate(0.702 2.147)"/><path class="c" d="M22.2,50.822a35.962,35.962,0,0,1-6.5-3.25,11.623,11.623,0,0,1-4.625-6.846c-.737-2.762-.466-5.719-1.332-8.427a18.989,18.989,0,0,0-3.867-6.044c-.13-.162-.412.054-.292.217,1.8,2.329,3.542,4.918,3.856,7.907s.433,5.849,1.571,8.666c1.841,4.56,6.5,6.857,10.832,8.46C22.285,51.666,22.6,50.995,22.2,50.822Z" transform="translate(0.462 2.189)"/><path class="c" d="M13.814,49.86c-4.387-.823-6.965-4.246-8.427-8.276a12.468,12.468,0,0,1-.412-6.933,10.334,10.334,0,0,0,0-5.416.13.13,0,0,0-.249.065c.585,2.535-.607,5-.845,7.507A12.728,12.728,0,0,0,5.2,43.155c1.668,3.737,4.225,6.673,8.417,7.5C14.1,50.651,14.313,49.947,13.814,49.86Z" transform="translate(0.322 2.435)"/><path class="c" d="M39.759,19.389a27.308,27.308,0,0,0-9.651-.368c-3.369.422-7.2,1.083-10.247,2.654v.065c3.065-.336,6.033-1.484,9.1-1.95a28.521,28.521,0,0,1,9.435,0,19.324,19.324,0,0,1,7.452,2.957A13.584,13.584,0,0,1,49.226,26a7.745,7.745,0,0,1,1.4,4.506.357.357,0,1,0,.715,0C51.36,24.306,45.045,20.634,39.759,19.389Z" transform="translate(1.653 1.569)"/><path class="c" d="M38.985,32.069c-1.159-2.7-5.514-4.105-8.07-2.665a1.69,1.69,0,0,0-.487,2.73,6.3,6.3,0,0,0,1.917,1.82,27.159,27.159,0,0,1,2.535,1.083c.227.152.487-.195.292-.379a8.3,8.3,0,0,0-2.253-1.083,5.059,5.059,0,0,1-1.776-1.506l-.4-.509.347-1.538a2.318,2.318,0,0,1,1.083-.379c2.73-.585,4.777.8,6.6,2.621C38.877,32.4,39.061,32.264,38.985,32.069Z" transform="translate(2.491 2.408)"/><path class="c" d="M68.2,10.429a2.686,2.686,0,0,0-.682-.823c-.3-.227-.845-.368-1.083-.7-.412-.661-.119-1.322-.942-1.776a1.614,1.614,0,0,0-1.083-.195,1.787,1.787,0,0,0-.986-1.018c-.845-.379-1.917,0-2.827-.13.195-.065.173-.39,0-.477a6.5,6.5,0,0,0-3.867-.292.477.477,0,0,0-.108.867,3.185,3.185,0,0,1,.7.477l-.791.1a.469.469,0,0,0-.325.8l.271.238a7.192,7.192,0,0,0-2.351.563c-.347.195-.672.466-.607.91s.487.607.877.693c.78.152,1.592-.087,2.275.271L55.059,10.96a.477.477,0,0,0,.238.888h.975a2.838,2.838,0,0,0-1.3,2.242.5.5,0,0,0,.737.422,11.254,11.254,0,0,1,1.668-.888c.563-.184.6-.412.52.314a17.018,17.018,0,0,1-.975,3.055c-.152.466.368.726.737.563l3.12-1.322a11.775,11.775,0,0,0,.845,1.711.5.5,0,0,0,.856,0l.271-.628a4.116,4.116,0,0,0,4.333-.693,2.556,2.556,0,0,0,.834-1.8,3.087,3.087,0,0,1,.238-1.776c.195-.314.444-.422.531-.812a3.044,3.044,0,0,0-.487-1.809Zm-1.083,2.307c-.477.6-.3,1.083-.238,1.766.195,2.264-2.632,2.556-4.17,1.809a.5.5,0,0,0-.682.173l-.054.13a10.54,10.54,0,0,1-.477-1.159.509.509,0,0,0-.737-.3l-2.6,1.083c.217-.672.444-1.354.639-2.036.152-.509.422-1.159,0-1.625s-1.462-.227-2.286.238a5.514,5.514,0,0,1,1.863-.975.487.487,0,0,0-.13-.942H56.879l.834-.542a.466.466,0,0,0,.1-.726,2.773,2.773,0,0,0-2.166-.845c-.422,0-1.376.108-.487-.141s1.581-.347,2.361-.5a.433.433,0,0,0,.184-.715l-.141-.249h.661a.477.477,0,0,0,.412-.715,4.084,4.084,0,0,0-.563-.715h.856a.466.466,0,0,0,.141.325,2.231,2.231,0,0,0,1.354.7c.812.141,3.152-.542,3.141.845a.52.52,0,0,0,.78.444l1.018.466.065.336c.1.184.087.433.184.628a1.517,1.517,0,0,0,.585.607c.542.357.942.466,1.257,1.083s.152.942-.282,1.495Z" transform="translate(4.453 0.412)"/><path class="c" d="M64.862,12.446a.368.368,0,0,0-.7,0c-.087.238-.13.455-.195.672a1.6,1.6,0,0,0-1.083-.379c-.336,0-.9.39-1.083.162s.531-1.452.758-1.744-.152-.715-.487-.628a10.637,10.637,0,0,1-1.192.357c.13-.282.379-.661.444-.791a.422.422,0,0,0-.217-.6h0c.292,0,.217-.52-.065-.52a2.556,2.556,0,0,0-1.473.477.4.4,0,0,0,.1.726l.563.087c-.271.444-.5.975-.152,1.332a1.137,1.137,0,0,0,1.083.119,2.047,2.047,0,0,0-.325,1.755c.639,1.192,2.3-.607,2.957.682a.422.422,0,0,0,.726,0A1.982,1.982,0,0,0,64.862,12.446Z" transform="translate(4.94 0.756)"/><path class="c" d="M64.219,9.9a1.365,1.365,0,0,0-.726-.455c-.3-.119-.357-.357-.563-.585a.466.466,0,0,0-.78.325,1.256,1.256,0,0,0,.769.964,2.459,2.459,0,0,0,.585.162,1.084,1.084,0,0,1,.238.076h0c-.206,0-.206.379,0,.379a.607.607,0,0,0,.477-.867Z" transform="translate(5.171 0.736)"/><path class="c" d="M33.9,8.813a39.461,39.461,0,0,0-8.666,7.041.13.13,0,0,0,.184.184,63.1,63.1,0,0,1,8.731-6.8.245.245,0,1,0-.249-.422Z" transform="translate(2.096 0.739)"/><path class="c" d="M54.876,5.152A7.257,7.257,0,0,0,51.052,3.8a43.229,43.229,0,0,1-5.416-.617.273.273,0,0,0-.206.5c2.849,1.506,6.445,0,9.218,1.852C54.887,5.7,55.093,5.347,54.876,5.152Z" transform="translate(3.769 0.273)"/><path class="c" d="M47.9,6.44l-2.676.141c-.227,0-.227.357,0,.347L47.9,6.819C48.137,6.808,48.137,6.429,47.9,6.44Z" transform="translate(3.749 0.545)"/><path class="c" d="M50.3,9.511a25.39,25.39,0,0,0-8.092,1.083.2.2,0,1,0,.108.379A33.742,33.742,0,0,1,50.3,9.89a.195.195,0,0,0,0-.379Z" transform="translate(3.5 0.799)"/><path class="c" d="M60.825,21.171c0-.26-.444-.152-.4.108a12.663,12.663,0,0,1-.314,5.416.208.208,0,1,0,.4.108A10.832,10.832,0,0,0,60.825,21.171Z" transform="translate(5.001 1.758)"/><path class="c" d="M65.234,18.609c-.141-.271-.542,0-.412.238a14.342,14.342,0,0,1,.9,9.381.238.238,0,0,0,.455.13A12.619,12.619,0,0,0,65.234,18.609Z" transform="translate(5.392 1.548)"/><path class="c" d="M69.836,18.009c-.065-.206-.39-.119-.325.087a20.689,20.689,0,0,1,.9,5.936.184.184,0,1,0,.368,0,18.317,18.317,0,0,0-.942-6.023Z" transform="translate(5.783 1.498)"/><path class="c" d="M64.264,39.871a36.547,36.547,0,0,1-3.4,6.5c-.141.217.195.39.336.195a26,26,0,0,0,3.477-6.5C64.719,39.719,64.264,39.622,64.264,39.871Z" transform="translate(5.061 3.315)"/><path class="c" d="M58.951,41.228l-.379.888c-.108.249.26.466.368.217l.379-.888C59.416,41.2,59.037,40.99,58.951,41.228Z" transform="translate(4.872 3.431)"/><path class="c" d="M46.614,50.356a30.027,30.027,0,0,1-4.907,4.69c-.227.173,0,.563.227.39a26,26,0,0,0,4.983-4.788C47.091,50.442,46.8,50.139,46.614,50.356Z" transform="translate(3.463 4.193)"/><path class="c" d="M42.76,49.874c-2.719,2.936-5.763,5.535-9.749,6.5-.249.065-.141.422.108.379,4.051-.78,7.2-3.694,9.879-6.651C43.193,50.015,42.922,49.69,42.76,49.874Z" transform="translate(2.735 4.154)"/><path class="c" d="M22.225,53.817a20.96,20.96,0,0,1-8.492-.737c-.162,0-.238.206-.076.26a18.024,18.024,0,0,0,8.611.747C22.409,54.077,22.377,53.795,22.225,53.817Z" transform="translate(1.129 4.426)"/><path class="c" d="M28.692,55.921,25.887,57c-.162.065-.087.336.076.271l2.795-1.17C28.9,56.094,28.833,55.856,28.692,55.921Z" transform="translate(2.147 4.661)"/><path class="c" d="M41.676,4.521c-1.235.422-2.481.791-3.694,1.278-.271.108-.173.542.13.455,1.257-.368,2.459-.856,3.694-1.289C42.077,4.868,41.958,4.434,41.676,4.521Z" transform="translate(3.147 0.384)"/><path class="c" d="M69.16,31.877,68,35.062c-.076.195.249.282.314.087L69.4,31.964C69.507,31.78,69.225,31.7,69.16,31.877Z" transform="translate(5.657 2.653)"/></g></g></svg>