<svg xmlns="http://www.w3.org/2000/svg" width="65.744" height="62.298" viewBox="0 0 65.744 62.298"><defs><style>.a{opacity:0.26;}.a,.b,.c{mix-blend-mode:multiply;isolation:isolate;}</style></defs><g class="a"><g class="b" transform="translate(0 0)"><path class="c" d="M50.675,10.879c-.713-.825-2.232-.788-3.235-.807a16.683,16.683,0,0,0-4.351.488,27.393,27.393,0,0,0-4.1,1.472,12.511,12.511,0,0,0-2.813,1.425,18.391,18.391,0,0,1,8.572-5.364.394.394,0,0,0,0-.75c-5.965-2.035-11.329,2-15.652,5.627a12.923,12.923,0,0,0-1.688-3.31c.431-.563.216-.938-.506-1.182-.938-.263-2.176-.338-2.813.544a1.219,1.219,0,0,0,.263,1.8,7.8,7.8,0,0,1,.685,2.251c-3.273,1.294-6.443-.6-9.116-2.373-.216-.141-.525.15-.366.366,1.332,1.876,2.813,3.751,4.961,4.586a3.751,3.751,0,0,0-1.35.628.15.15,0,0,0-.056.141,27.675,27.675,0,0,1-3.386-2.241c-.263-.206-.628.131-.544.422a10.316,10.316,0,0,0,3.751,5.43c-2.11-.516-4.623.938-6.358,1.979a6,6,0,0,0-2.326,2.279A11.77,11.77,0,0,0,8.67,27.713c0,.225.272.394.385.159a11.492,11.492,0,0,1,4.023-4.989A24.909,24.909,0,0,1,16.032,21.4a20.276,20.276,0,0,1,3.386-.938A.141.141,0,0,0,19.5,20.4a10.128,10.128,0,0,0,9.481.938c.694-.291,1.3-.853,1.988-1.107.835-.319,1.876.319,2.588.7a13.036,13.036,0,0,1,3.517,2.813A22.086,22.086,0,0,1,41.5,32.308a.347.347,0,0,0,.675-.094,19.394,19.394,0,0,0-5.73-13.448,18.857,18.857,0,0,0-1.425-1.257c-.46-.366-.544-.375-.619-1.013a1.546,1.546,0,0,1,.45-1.341q.3-.431.638-.844a.113.113,0,0,0,.169.047,25.7,25.7,0,0,1,7.081-3.039,16.055,16.055,0,0,1,3.948-.581,13.945,13.945,0,0,1,1.951.094c.628.084,1.163.338,1.772.469a.272.272,0,0,0,.263-.422ZM25.626,8.919h.3a5.261,5.261,0,0,1,.835.169q.45,0,.206.206c0,.3-.7.591-.938.685a2.316,2.316,0,0,1-1.266.141Q24.566,8.863,25.626,8.919Zm-.61,1.941a.281.281,0,0,0,0-.113,2.945,2.945,0,0,0,2.11-.731,26.258,26.258,0,0,1,1.547,3.536.347.347,0,0,0,.056.169,16.2,16.2,0,0,1,.76,4.239,10.316,10.316,0,0,1-3.629.563.169.169,0,0,0,0-.056,34.238,34.238,0,0,0-.2-4.811,8.844,8.844,0,0,0-.638-2.795Zm-2.738,5.2a.249.249,0,0,0,0-.5c-2.363-.159-4.014-1.782-5.392-3.554,2.5,1.547,5.327,2.813,8.243,1.716.188,1.594.131,3.254.4,4.783A15,15,0,0,1,19.3,16.562a7.559,7.559,0,0,1,2.992-.5Zm12.3-1.81c-.6.8-1.557,1.876-.938,2.907a4.971,4.971,0,0,0,1.238,1.154,17.922,17.922,0,0,1,1.613,1.519,18.6,18.6,0,0,1,4.736,9.66,21.738,21.738,0,0,0-2.954-5.233,15.07,15.07,0,0,0-2.945-2.907,9.378,9.378,0,0,0-3.7-1.876,2.026,2.026,0,0,0-1.491.516,9.5,9.5,0,0,1-2.26,1.06,9.753,9.753,0,0,1-5.242.141,9.547,9.547,0,0,1-6.358-5.627c3.873,2.757,8.74,4.792,13.373,2.926a.309.309,0,0,0,.4-.169l.131-.056c.234-.113.094-.506-.141-.478a18.615,18.615,0,0,0-.675-3.967c3.854-3.292,8.619-7.071,13.927-6.04A19.394,19.394,0,0,0,37.452,11.2a19.038,19.038,0,0,0-2.87,3.057Z" transform="translate(-0.535 -0.419)"/><path class="c" d="M65.647,30.413a51.412,51.412,0,0,0-1.941-10.138c-1.032-3.207-2.973-6-4.689-8.853a16.431,16.431,0,0,0-2.748-3.639,25.4,25.4,0,0,0-3.9-2.748A35.806,35.806,0,0,0,43.589.694,18.306,18.306,0,0,0,27.806,3.507c-.3.225-.6.46-.882.7a9.313,9.313,0,0,0-5.317,0,21.57,21.57,0,0,0-5.571,2.279,21.851,21.851,0,0,0-4.623,3.235c-.938.938-2.091,2.41-1.876,3.826A14.011,14.011,0,0,0,1.6,21.176C-.882,26.915-.122,33.611,1.435,39.491A34.249,34.249,0,0,0,9.387,54.5a26.09,26.09,0,0,0,15.933,7.587,38.8,38.8,0,0,0,19.141-3.095c5.739-2.354,11.807-5.533,15.7-10.419a25.837,25.837,0,0,0,4.211-8.14,23.67,23.67,0,0,0,1.275-10.016Zm-1.294,5.346A30.488,30.488,0,0,1,61.38,44.5c-2.813,5.28-7.7,8.637-12.9,11.254a44.546,44.546,0,0,1-17.875,5.2,27.3,27.3,0,0,1-16.6-4.3A27.759,27.759,0,0,1,4.239,43.974,36.828,36.828,0,0,1,1.35,27.253C1.847,21.72,4.811,16,10.381,14.189a10.653,10.653,0,0,1,3.751-.6c.356,0,.338-.5,0-.544a10.194,10.194,0,0,0-3.751.253,4.633,4.633,0,0,1,.6-1.744,8.159,8.159,0,0,1,1.726-1.876A25.7,25.7,0,0,1,16.9,6.94a20.632,20.632,0,0,1,4.689-1.876,34.484,34.484,0,0,1,4.886-.553,19.976,19.976,0,0,0-1.726,1.763c-.375.431.244,1.069.638.638a17.818,17.818,0,0,1,14.32-5.683A20.444,20.444,0,0,1,48.044,3.91c1.369.741,2.7,1.566,4.014,2.4A19.825,19.825,0,0,1,55.809,9.04a19.986,19.986,0,0,1,2.57,3.657c.835,1.36,1.688,2.71,2.495,4.1a26.381,26.381,0,0,1,2.9,9.05c.572,3.226,1.191,6.6.591,9.9Z" transform="translate(0.005 0.003)"/><path class="c" d="M27.571,23.079c-1.96.844-3.235,3.123-4.033,5a12.192,12.192,0,0,0-.938,3.217,6.424,6.424,0,0,0,.188,3.339.209.209,0,0,0,.375-.047,19.891,19.891,0,0,0,.375-2.982,15.681,15.681,0,0,1,.807-2.973,13.8,13.8,0,0,1,3.432-5.317C27.928,23.21,27.731,23,27.571,23.079Z" transform="translate(-1.392 -1.431)"/><path class="c" d="M39.105,59.408a24.1,24.1,0,0,1-23.3-4.426,58.258,58.258,0,0,1-4.989-5.355c-.1-.113-.338,0-.272.159A16.975,16.975,0,0,0,15.313,55.7a24.749,24.749,0,0,0,6.565,4.07,25.1,25.1,0,0,0,17.49.581C39.93,60.159,39.668,59.2,39.105,59.408Z" transform="translate(-0.65 -3.08)"/><path class="c" d="M47.171,4.134a17.668,17.668,0,0,0-13.8,1.707.113.113,0,0,0,.113.2A19.75,19.75,0,0,1,46.993,4.79a.34.34,0,0,0,.178-.656Z" transform="translate(-2.067 -0.211)"/></g></g></svg>